<svg width="20" height="21" viewBox="0 0 20 21" fill="none" xmlns="http://www.w3.org/2000/svg">
<path d="M18.2031 3.3811C18.9062 3.6936 19.375 4.35767 19.375 5.09985C19.375 13.7717 14.0625 18.5764 10.7031 19.9827C10.2344 20.178 9.72656 20.178 9.25781 19.9827C5.07812 18.2249 0.625 12.8733 0.625 5.09985C0.625 4.35767 1.05469 3.6936 1.75781 3.3811L9.25781 0.256104C9.49219 0.177979 9.72656 0.138916 10 0.138916C10.2344 0.138916 10.4688 0.177979 10.7031 0.256104L18.2031 3.3811ZM10 17.5608C13.6328 15.7249 16.7188 11.428 16.8359 5.52954L10 2.67798V17.5608Z" fill="#08C16A"/>
</svg>
