<svg width="566" height="214" viewBox="0 0 566 214" fill="none" xmlns="http://www.w3.org/2000/svg">
<g clip-path="url(#clip0_56_48)">
<path d="M15.1136 48.5097L2.97366 45.4896C2.03575 45.2563 1.08627 45.8275 0.852947 46.7654L0.0442092 50.0163C-0.189117 50.9542 0.382063 51.9037 1.31997 52.137L13.46 55.1571C14.3979 55.3904 15.3473 54.8192 15.5807 53.8813L16.3894 50.6304C16.6227 49.6925 16.0516 48.743 15.1136 48.5097Z" fill="white"/>
<path d="M17.9947 78.8301L5.89086 81.9919C4.95574 82.2362 4.3957 83.1923 4.63998 84.1274L5.48668 87.3686C5.73096 88.3037 6.68705 88.8638 7.62216 88.6195L19.726 85.4577C20.6611 85.2134 21.2212 84.2573 20.9769 83.3222L20.1302 80.0809C19.8859 79.1458 18.9298 78.5858 17.9947 78.8301Z" fill="white"/>
<path d="M77.02 171.69H76.1C74.85 171.69 73.85 172.66 73.85 173.86V186.12C73.85 186.86 74.22 187.5 74.79 187.89L78.65 192.79C78.3 193.53 78.12 194.36 78.12 195.23C78.12 198.55 80.91 201.25 84.36 201.25C87.81 201.25 90.61 198.55 90.61 195.23C90.61 191.91 87.82 189.2 84.36 189.2C83.99 189.2 83.63 189.23 83.28 189.3L79.27 184.22V173.86C79.27 172.66 78.26 171.69 77.02 171.69Z" fill="white"/>
<path d="M63.19 20.42C63.19 20.42 31.31 20.42 22.95 56.99V73.29C24.01 77.71 25.45 81.11 26.6 83.44C29.16 88.62 32.22 92.43 36.26 97.45C37.89 99.47 39.29 101.11 40.27 102.22C41.29 103.67 42.34 105.47 43.31 107.58C44.8 110.8 46.23 115.11 45.97 119.43C45.97 119.43 47.61 122.86 49.38 123.72C49.63 123.84 49.89 123.91 50.14 123.91C52.18 123.91 83.35 124.42 83.35 124.42C83.35 124.42 86 124.32 88.04 118.31L53.81 118.11C53.81 118.11 52.08 118.31 51.77 114.75C51.16 110.55 49.95 107.27 48.96 105.05C47.13 100.98 44.93 98.14 43.62 96.47C42.89 95.54 42.25 94.8 41.79 94.28C39.1 92.07 37.26 89.89 36.06 88.26C33.86 85.27 32.63 82.51 31.47 79.9C30.61 77.98 29.99 76.33 29.57 75.13C29.01 72.55 28.55 69.35 28.52 65.66C28.5 62.94 28.73 60.51 29.06 58.42C29.85 54.48 31.88 48.82 35.85 42.85C41.06 34.99 49.89 27 64.41 26.44C64.59 25.9 64.82 24.97 64.69 23.82C64.49 22.06 63.58 20.88 63.19 20.43V20.42Z" fill="white"/>
<path d="M105 64.79C104.9 64.83 104.89 64.83 105 64.79Z" fill="white"/>
<path d="M133.73 43.31V32.26L133.12 30.2999C133.12 30.2999 125.36 30.3 125.33 29.67C125.33 29.64 125.35 29.6 125.39 29.57C125.39 29.19 125.36 28.62 125.21 27.94C125.08 27.34 124.87 26.76 123.87 24.75C123.64 24.29 123.32 23.67 122.94 22.94L127.48 17.78L126.74 14.71L119.74 7.70995L117.65 7.82995C117.65 7.82995 112.8 10.77 111.83 11.5C111.52 10.88 105.37 8.93996 105.37 8.93996C105.17 6.68996 104.96 4.43996 104.76 2.18996C104.76 2.04996 104.76 1.53996 104.39 1.08996C103.89 0.479956 103.14 0.46997 103.04 0.47997H91.87C90.77 1.43997 90.64 1.82995 90.64 1.82995C90.57 2.04995 90.52 2.36996 90.64 2.80996C90.96 6.00996 91.12 9.20994 90.46 9.35994C90.36 9.37994 90.27 9.32996 90.24 9.30996C89.31 8.78996 83.28 11.5199 83.28 11.5199L82.67 10.91L79.85 8.32995L78.62 7.46996C77.37 6.59996 75.9 7.33996 75.55 7.46996C74.24 8.26996 72.44 9.57997 70.76 11.64C69.6 13.06 68.83 14.45 68.3 15.57C69.27 16.97 69.54 17.38 69.53 17.39C69.51 17.4 68.58 16.14 68.61 16.18C69.86 18.23 71.1 20.27 72.35 22.32C71.69 23.24 70.85 24.66 70.42 26.56C70.13 27.8 70.46 28.69 69.78 28.95C69.3 29.13 67.94 29.32 63.89 29.56C63.65 29.47 63.45 29.44 63.28 29.44C61.93 29.44 61.11 31.2 61.07 31.28C61.07 31.28 60.58 40.1199 61.07 41.9599C61.56 43.7999 63.28 43.43 63.28 43.43L69.54 43.7999C69.17 44.8999 72.36 51.53 72.36 51.53C72.36 51.53 72.07 52.22 71.99 52.39C71.67 53.07 71.02 53.4099 70.52 53.7399C70.23 53.9199 68.66 54.94 68.06 56.07C67.77 56.62 67.5 57.6 68.06 59.26C68.06 59.26 74.44 65.4 75.06 66.5C75.67 67.6 77.64 66.38 77.64 66.38L83.16 62.3299C84.02 63.7999 89.68 64.54 89.68 64.54C89.68 64.54 89.3 68.59 90.25 71.29C91.2 73.99 91.63 73.87 91.63 73.87C91.63 73.87 94.1 73.77 95.56 73.75C100.66 73.67 102.21 74.4 103.29 73.26C103.59 72.95 103.96 72.3799 104.03 71.2999L104.4 64.67C104.4 64.67 108.12 63.64 105.02 64.79C105.76 64.51 111.51 62.39 112.02 62.34L117.18 66.76H119.51L127 58.9L126.51 56.81L122.83 51.9C125.16 46.62 125.16 44.9 125.16 44.9C125.16 44.9 130.68 44.9 132.77 44.04C134.86 43.18 133.75 43.2999 133.75 43.2999L133.73 43.31ZM97.58 55.09C87.85 55.09 79.96 47.01 79.96 37.04C79.96 27.07 87.85 18.99 97.58 18.99C107.31 18.99 115.2 27.07 115.2 37.04C115.2 47.01 107.31 55.09 97.58 55.09Z" fill="white"/>
<path d="M117.63 115.26C117.58 115.31 117.57 115.32 117.63 115.26Z" fill="white"/>
<path d="M124.8 102.91C124.8 99.16 124.34 98.14 124.34 98.14C124.34 98.14 127.62 96.6799 128.63 95.6199C129.64 94.5599 129.02 94.92 129.02 94.92L126.11 88.3599L125.23 87.3599C125.23 87.3599 120.62 89.41 120.44 89.04C120.44 89.02 120.44 88.9899 120.44 88.9599C120.34 88.7399 120.17 88.4 119.9 88.04C119.66 87.72 119.39 87.42 118.26 86.5C118 86.29 117.65 86 117.23 85.67L118.57 81.41L117.32 79.7799L111.32 77.47L110.11 78.0899C110.11 78.0899 108.01 81.1099 107.62 81.7999C107.27 81.5199 103.11 81.98 103.11 81.98C102.4 80.7 101.68 79.42 100.97 78.13C100.93 78.04 100.8 77.74 100.46 77.57C100 77.34 99.55 77.53 99.5 77.57C99.5 77.57 93.52 80.22 92.87 80.51C92.47 81.37 92.5 81.64 92.5 81.64C92.51 81.79 92.57 81.99 92.76 82.22C93.79 84.03 94.73 85.89 94.38 86.16C94.33 86.2 94.26 86.19 94.24 86.19C93.55 86.13 90.69 89.3399 90.69 89.3399L90.16 89.14L87.8 88.35L86.84 88.16C85.87 87.97 85.19 88.8 85.02 88.97C84.46 89.79 83.73 91.0399 83.28 92.7099C82.97 93.8599 82.87 94.89 82.86 95.69C83.8 96.27 84.08 96.44 84.07 96.45C84.07 96.46 83.18 95.96 83.2 95.98C84.48 96.87 85.76 97.75 87.04 98.64C86.89 99.36 86.77 100.43 87.01 101.66C87.17 102.47 87.59 102.92 87.26 103.25C87.02 103.48 86.26 103.96 83.92 105.17C83.75 105.17 83.62 105.21 83.52 105.26C82.72 105.61 82.69 106.88 82.69 106.94C82.69 106.94 84.73 112.32 85.51 113.28C86.29 114.24 87.21 113.57 87.21 113.57L91.02 112.14C91.09 112.89 94.73 115.99 94.73 115.99C94.73 115.99 94.74 116.47 94.73 116.6C94.73 117.09 94.43 117.46 94.21 117.79C94.09 117.98 93.42 118.99 93.37 119.82C93.34 120.22 93.44 120.88 94.21 121.71C94.21 121.71 99.62 123.67 100.27 124.17C100.93 124.66 101.77 123.42 101.77 123.42L103.98 119.56C104.88 120.21 108.43 119.15 108.43 119.15C108.43 119.15 109.27 121.66 110.55 123.01C111.82 124.36 112.05 124.18 112.05 124.18C112.05 124.18 113.49 123.47 114.35 123.07C117.36 121.68 118.47 121.7 118.81 120.74C118.9 120.48 118.98 120.04 118.73 119.38L117.2 115.35C117.2 115.35 119.14 113.76 117.6 115.26C117.98 114.89 120.82 112.13 121.1 111.96L125.33 113.22L126.71 112.61L129.08 105.97L128.24 104.86L124.76 102.92L124.8 102.91ZM105.74 111.44C99.5 111.44 94.45 106.38 94.45 100.15C94.45 93.9199 99.51 88.8599 105.74 88.8599C111.97 88.8599 117.03 93.9199 117.03 100.15C117.03 106.38 111.97 111.44 105.74 111.44Z" fill="white"/>
<path d="M156.17 94.5801C156.1 94.6101 156.09 94.6101 156.17 94.5801Z" fill="white"/>
<path d="M176.56 79.33V71.49L176.12 70.1C176.12 70.1 170.61 70.1 170.59 69.65C170.59 69.63 170.6 69.6 170.63 69.58C170.63 69.31 170.61 68.9 170.5 68.42C170.41 67.99 170.26 67.58 169.55 66.15C169.39 65.82 169.16 65.38 168.89 64.87L172.11 61.21L171.59 59.03L166.62 54.06L165.14 54.15C165.14 54.15 161.7 56.24 161.01 56.75C160.79 56.31 156.43 54.93 156.43 54.93C156.28 53.33 156.14 51.73 155.99 50.14C155.99 50.04 155.99 49.68 155.73 49.36C155.38 48.92 154.84 48.92 154.77 48.92H146.84C146.06 49.6 145.97 49.88 145.97 49.88C145.92 50.03 145.88 50.26 145.97 50.58C146.2 52.85 146.31 55.12 145.84 55.23C145.77 55.25 145.71 55.21 145.68 55.2C145.02 54.83 140.74 56.77 140.74 56.77L140.3 56.33L138.3 54.5L137.43 53.89C136.54 53.27 135.5 53.79 135.25 53.89C134.32 54.46 133.04 55.39 131.85 56.85C131.03 57.86 130.48 58.84 130.11 59.64C130.8 60.63 130.99 60.93 130.99 60.93C130.98 60.93 130.32 60.04 130.34 60.07C131.22 61.52 132.11 62.97 132.99 64.43C132.52 65.08 131.93 66.09 131.62 67.44C131.42 68.32 131.65 68.96 131.16 69.14C130.82 69.27 129.85 69.4 126.98 69.58C126.81 69.51 126.66 69.49 126.54 69.49C125.58 69.49 125 70.74 124.97 70.8C124.97 70.8 124.62 77.07 124.97 78.38C125.32 79.69 126.54 79.43 126.54 79.43L130.98 79.69C130.72 80.47 132.98 85.18 132.98 85.18C132.98 85.18 132.78 85.67 132.72 85.79C132.5 86.27 132.03 86.52 131.67 86.75C131.47 86.88 130.35 87.6 129.93 88.41C129.72 88.8 129.53 89.5 129.93 90.68C129.93 90.68 134.46 95.04 134.9 95.82C135.34 96.6 136.73 95.73 136.73 95.73L140.65 92.85C141.26 93.9 145.28 94.42 145.28 94.42C145.28 94.42 145.01 97.3 145.68 99.21C146.35 101.13 146.66 101.04 146.66 101.04C146.66 101.04 148.42 100.97 149.45 100.95C153.07 100.89 154.17 101.41 154.94 100.6C155.15 100.38 155.42 99.97 155.46 99.21L155.72 94.5C155.72 94.5 158.36 93.77 156.16 94.59C156.68 94.4 160.76 92.89 161.13 92.85L164.79 95.99H166.45L171.77 90.41L171.42 88.93L168.81 85.44C170.47 81.69 170.47 80.47 170.47 80.47C170.47 80.47 174.39 80.47 175.87 79.86C177.35 79.25 176.57 79.34 176.57 79.34L176.56 79.33ZM150.73 87.63C143.92 87.63 138.39 81.97 138.39 74.99C138.39 68.01 143.91 62.35 150.73 62.35C157.55 62.35 163.07 68.01 163.07 74.99C163.07 81.97 157.55 87.63 150.73 87.63Z" fill="white"/>
<path d="M41.47 145.03C41.07 144.64 40.53 144.39 39.92 144.39H23.11C22.97 144.39 22.83 144.41 22.68 144.43C21.76 140.83 18.5 138.17 14.59 138.17C9.98001 138.17 6.24001 141.91 6.24001 146.52C6.24001 151.13 9.98001 154.88 14.59 154.88C18.45 154.88 21.68 152.28 22.65 148.72C22.8 148.75 22.95 148.76 23.1 148.76H39.92C41.13 148.76 42.11 147.77 42.11 146.57C42.11 145.97 41.87 145.41 41.47 145.02V145.03ZM14.6 149.72C12.84 149.72 11.4 148.29 11.4 146.52C11.4 144.75 12.83 143.32 14.6 143.32C16.37 143.32 17.8 144.75 17.8 146.52C17.8 148.29 16.37 149.72 14.6 149.72Z" fill="white"/>
<path d="M557.97 137.4C554.07 137.4 550.81 140.07 549.88 143.66C549.74 143.63 549.6 143.62 549.45 143.62H532.63C532.03 143.62 531.48 143.87 531.08 144.26C530.68 144.65 530.44 145.2 530.44 145.81C530.44 147.02 531.42 148 532.63 148H549.45C549.6 148 549.75 147.98 549.9 147.96C550.87 151.51 554.1 154.12 557.96 154.12C562.57 154.12 566.31 150.38 566.31 145.76C566.31 141.14 562.57 137.41 557.96 137.41L557.97 137.4ZM558.21 149C556.45 149 555.01 147.57 555.01 145.8C555.01 144.03 556.44 142.6 558.21 142.6C559.98 142.6 561.41 144.03 561.41 145.8C561.41 147.57 559.98 149 558.21 149Z" fill="white"/>
<path d="M80.63 146.58H53.56C51.4337 146.58 49.71 148.304 49.71 150.43V160.44C49.71 162.566 51.4337 164.29 53.56 164.29H80.63C82.7563 164.29 84.48 162.566 84.48 160.44V150.43C84.48 148.304 82.7563 146.58 80.63 146.58Z" fill="white"/>
<path d="M89.47 150.81H84.68V152.85H89.47V150.81Z" fill="white"/>
<path d="M89.47 153.99H84.68V156.03H89.47V153.99Z" fill="white"/>
<path d="M89.47 157.18H84.68V159.22H89.47V157.18Z" fill="white"/>
<path d="M49.28 153.99H44.49V156.03H49.28V153.99Z" fill="white"/>
<path d="M57.03 164.78V169.57H59.07V164.78H57.03Z" fill="white"/>
<path d="M49.28 150.81H44.49V152.85H49.28V150.81Z" fill="white"/>
<path d="M49.28 157.18H44.49V159.22H49.28V157.18Z" fill="white"/>
<path d="M53.56 164.78V169.57H55.6V164.78H53.56Z" fill="white"/>
<path d="M60.49 164.78V169.57H62.53V164.78H60.49Z" fill="white"/>
<path d="M63.9 164.78V169.57H65.94V164.78H63.9Z" fill="white"/>
<path d="M67.42 164.78V169.57H69.46V164.78H67.42Z" fill="white"/>
<path d="M70.68 164.78V169.57H72.72V164.78H70.68Z" fill="white"/>
<path d="M74.19 164.78V169.57H76.23V164.78H74.19Z" fill="white"/>
<path d="M77.71 164.78V169.57H79.75V164.78H77.71Z" fill="white"/>
<path d="M81.03 129.25H53.21C52.5473 129.25 52.01 129.787 52.01 130.45V132.74C52.01 133.403 52.5473 133.94 53.21 133.94H81.03C81.6927 133.94 82.23 133.403 82.23 132.74V130.45C82.23 129.787 81.6927 129.25 81.03 129.25Z" fill="white"/>
<path d="M81.03 138.14H53.21C52.5473 138.14 52.01 138.677 52.01 139.34V141.63C52.01 142.293 52.5473 142.83 53.21 142.83H81.03C81.6927 142.83 82.23 142.293 82.23 141.63V139.34C82.23 138.677 81.6927 138.14 81.03 138.14Z" fill="white"/>
<path d="M41.64 138.24V138.94C41.64 139.9 40.87 140.66 39.92 140.66H30.18C29.59 140.66 29.09 140.38 28.78 139.94L24.89 136.98C24.3 137.25 23.65 137.39 22.95 137.39C20.31 137.39 18.17 135.25 18.17 132.61C18.17 129.97 20.31 127.82 22.95 127.82C25.59 127.82 27.74 129.96 27.74 132.61C27.74 132.89 27.71 133.17 27.66 133.44L31.69 136.51H39.92C40.87 136.51 41.64 137.28 41.64 138.23V138.24Z" fill="white"/>
<path d="M42.11 154.23V153.53C42.09 152.57 41.3 151.82 40.35 151.83L30.61 151.97C30.02 151.97 29.52 152.27 29.22 152.71L25.37 155.73C24.78 155.47 24.12 155.34 23.43 155.35C20.79 155.39 18.68 157.56 18.72 160.2C18.76 162.85 20.93 164.96 23.57 164.92C26.22 164.88 28.33 162.71 28.29 160.06C28.29 159.78 28.26 159.5 28.2 159.23L32.19 156.1L40.42 155.98C41.37 155.97 42.13 155.18 42.12 154.23H42.11Z" fill="white"/>
<path d="M93.56 138.38V139.08C93.56 140.04 94.33 140.8 95.28 140.8H105.02C105.61 140.8 106.11 140.52 106.42 140.08L110.31 137.12C110.9 137.39 111.55 137.53 112.25 137.53C114.89 137.53 117.03 135.39 117.03 132.75C117.03 130.1 114.89 127.96 112.25 127.96C109.6 127.96 107.46 130.1 107.46 132.75C107.46 133.03 107.49 133.31 107.54 133.58L103.51 136.65H95.28C94.33 136.65 93.56 137.42 93.56 138.37V138.38Z" fill="white"/>
<path d="M93.09 154.37V153.67C93.11 152.71 93.9 151.96 94.85 151.97L104.59 152.11C105.18 152.11 105.68 152.41 105.98 152.85L109.83 155.87C110.42 155.61 111.08 155.48 111.77 155.49C114.41 155.53 116.52 157.7 116.48 160.34C116.44 162.99 114.27 165.1 111.63 165.06C108.98 165.02 106.87 162.85 106.91 160.2C106.91 159.92 106.94 159.64 107 159.37L103.01 156.24L94.78 156.12C93.83 156.11 93.07 155.32 93.08 154.37H93.09Z" fill="white"/>
<path d="M57.42 171.75H58.34C59.59 171.78 60.57 172.77 60.56 173.97L60.37 186.23C60.36 186.97 59.98 187.6 59.4 187.98L55.46 192.83C55.8 193.57 55.97 194.4 55.96 195.28C55.91 198.6 53.07 201.26 49.63 201.21C46.18 201.16 43.42 198.42 43.47 195.1C43.52 191.78 46.36 189.11 49.81 189.16C50.18 189.16 50.54 189.2 50.89 189.28L54.98 184.26L55.14 173.9C55.16 172.7 56.18 171.74 57.42 171.76V171.75Z" fill="white"/>
<path d="M31.9063 102.768L23.0604 111.614C22.377 112.298 22.377 113.406 23.0604 114.089L25.4292 116.458C26.1126 117.141 27.2207 117.141 27.9041 116.458L36.75 107.612C37.4334 106.929 37.4334 105.821 36.75 105.137L34.3812 102.768C33.6978 102.085 32.5897 102.085 31.9063 102.768Z" fill="white"/>
<path d="M36.3169 22.8511L27.0187 14.4819C26.3003 13.8353 25.1938 13.8935 24.5472 14.6119L22.3061 17.1018C21.6595 17.8202 21.7177 18.9267 22.436 19.5733L31.7342 27.9425C32.4526 28.589 33.5591 28.5309 34.2057 27.8125L36.4468 25.3226C37.0934 24.6042 37.0352 23.4977 36.3169 22.8511Z" fill="white"/>
<path d="M69.76 194.46C69.79 194.28 69.81 194.11 69.81 193.93V174.3C69.81 172.89 68.63 171.75 67.18 171.75C66.46 171.75 65.8 172.03 65.33 172.5C64.86 172.97 64.56 173.6 64.56 174.3V193.93C64.56 194.1 64.58 194.26 64.61 194.43C60.3 195.51 57.11 199.32 57.11 203.87C57.11 209.25 61.59 213.62 67.1 213.62C72.61 213.62 77.11 209.25 77.11 203.87C77.11 199.37 73.99 195.59 69.74 194.46H69.76ZM67.09 208.18C64.95 208.18 63.21 206.44 63.21 204.3C63.21 202.16 64.95 200.42 67.09 200.42C69.23 200.42 70.97 202.16 70.97 204.3C70.97 206.44 69.23 208.18 67.09 208.18Z" fill="white"/>
<path d="M550.63 142.88H93.71V148.39H550.63V142.88Z" fill="white"/>
<path d="M203.718 99.959H191.514V133.36H186.438V99.959H174.209V95.6721H203.718V99.959ZM232.559 129.205L232.533 133.36H209.31V95.6721H232.533V99.8275H214.412V112.346H229.088V116.344H214.412V129.205H232.559ZM265.304 125.575C265.584 125.575 265.83 125.689 266.04 125.917L268.065 128.1C266.523 129.888 264.646 131.282 262.437 132.282C260.246 133.281 257.589 133.781 254.468 133.781C251.768 133.781 249.314 133.316 247.104 132.387C244.895 131.44 243.01 130.125 241.45 128.442C239.889 126.741 238.68 124.707 237.82 122.34C236.961 119.973 236.532 117.37 236.532 114.529C236.532 111.689 236.979 109.085 237.873 106.718C238.767 104.351 240.021 102.317 241.634 100.616C243.265 98.9158 245.211 97.6008 247.473 96.6715C249.734 95.7247 252.233 95.2513 254.968 95.2513C257.651 95.2513 260.018 95.6809 262.069 96.54C264.12 97.3991 265.926 98.5651 267.487 100.038L265.804 102.379C265.698 102.554 265.558 102.703 265.383 102.826C265.225 102.931 265.006 102.983 264.725 102.983C264.41 102.983 264.024 102.817 263.568 102.484C263.112 102.133 262.516 101.747 261.78 101.327C261.043 100.906 260.123 100.529 259.018 100.196C257.914 99.845 256.555 99.6697 254.942 99.6697C252.996 99.6697 251.216 100.012 249.603 100.695C247.99 101.362 246.596 102.335 245.421 103.615C244.264 104.895 243.361 106.455 242.712 108.296C242.064 110.137 241.739 112.215 241.739 114.529C241.739 116.879 242.072 118.974 242.739 120.815C243.422 122.656 244.343 124.216 245.5 125.496C246.675 126.759 248.051 127.723 249.629 128.389C251.225 129.056 252.943 129.389 254.784 129.389C255.906 129.389 256.914 129.327 257.808 129.205C258.72 129.064 259.553 128.854 260.307 128.573C261.078 128.293 261.789 127.942 262.437 127.521C263.104 127.083 263.761 126.566 264.41 125.97C264.708 125.707 265.006 125.575 265.304 125.575ZM304.516 95.6721V133.36H299.413V116.212H279.084V133.36H273.981V95.6721H279.084V112.478H299.413V95.6721H304.516Z" fill="white"/>
<path d="M316.693 132.36H314.228L328.031 94.1054H330.721L344.525 132.36H342.059L329.47 97.1128H329.283L316.693 132.36ZM320.186 117.958H338.566V120.125H320.186V117.958ZM380.893 94.1054V132.36H378.614L354.219 98.3456H353.995V132.36H351.66V94.1054H353.958L378.353 128.157H378.577V94.1054H380.893ZM390.457 132.36H387.991L401.795 94.1054H404.485L418.288 132.36H415.823L403.233 97.1128H403.046L390.457 132.36ZM393.95 117.958H412.33V120.125H393.95V117.958ZM425.424 132.36V94.1054H427.759V130.193H446.438V132.36H425.424ZM483.95 113.233C483.95 117.18 483.265 120.63 481.895 123.581C480.525 126.52 478.62 128.805 476.179 130.436C473.751 132.067 470.949 132.883 467.774 132.883C464.586 132.883 461.771 132.067 459.331 130.436C456.902 128.792 455.003 126.501 453.634 123.562C452.264 120.611 451.579 117.168 451.579 113.233C451.579 109.285 452.264 105.842 453.634 102.903C455.016 99.9644 456.921 97.6794 459.349 96.0481C461.778 94.4043 464.586 93.5824 467.774 93.5824C470.949 93.5824 473.751 94.3981 476.179 96.0294C478.62 97.6607 480.525 99.952 481.895 102.903C483.265 105.842 483.95 109.285 483.95 113.233ZM481.671 113.233C481.671 109.684 481.073 106.608 479.878 104.005C478.695 101.403 477.057 99.3916 474.965 97.972C472.873 96.5399 470.476 95.8239 467.774 95.8239C465.071 95.8239 462.674 96.5337 460.582 97.9533C458.49 99.3605 456.846 101.372 455.651 103.987C454.468 106.589 453.876 109.671 453.876 113.233C453.876 116.757 454.462 119.826 455.632 122.441C456.815 125.044 458.453 127.061 460.545 128.493C462.637 129.925 465.046 130.642 467.774 130.642C470.476 130.642 472.873 129.932 474.965 128.512C477.057 127.08 478.695 125.063 479.878 122.46C481.073 119.858 481.671 116.782 481.671 113.233ZM519.879 106.06C519.592 104.765 519.107 103.513 518.422 102.306C517.737 101.085 516.859 99.9893 515.788 99.018C514.729 98.0343 513.484 97.256 512.052 96.6831C510.633 96.1103 509.039 95.8239 507.27 95.8239C504.568 95.8239 502.171 96.5337 500.079 97.9533C497.999 99.3605 496.368 101.372 495.185 103.987C494.014 106.589 493.429 109.671 493.429 113.233C493.429 116.757 494.014 119.826 495.185 122.441C496.356 125.057 497.993 127.08 500.098 128.512C502.215 129.932 504.674 130.642 507.476 130.642C509.979 130.642 512.195 130.062 514.125 128.904C516.068 127.746 517.581 126.09 518.664 123.936C519.748 121.781 520.277 119.204 520.252 116.203L521.074 116.595H508.073V114.428H522.531V116.595C522.531 119.97 521.883 122.877 520.588 125.318C519.306 127.746 517.525 129.614 515.246 130.922C512.98 132.229 510.39 132.883 507.476 132.883C504.188 132.883 501.318 132.067 498.865 130.436C496.412 128.805 494.506 126.52 493.149 123.581C491.804 120.63 491.132 117.18 491.132 113.233C491.132 110.269 491.518 107.579 492.29 105.163C493.062 102.748 494.164 100.68 495.596 98.962C497.028 97.2311 498.734 95.9048 500.714 94.9834C502.694 94.0494 504.879 93.5824 507.27 93.5824C509.437 93.5824 511.386 93.9436 513.117 94.6658C514.848 95.3756 516.342 96.3345 517.6 97.5424C518.87 98.7378 519.897 100.076 520.682 101.558C521.466 103.028 521.996 104.528 522.27 106.06H519.879ZM526.944 94.1054H529.708L541.756 112.56H542.018L554.066 94.1054H556.83L543.064 115.007V132.36H540.71V115.007L526.944 94.1054Z" fill="white"/>
<path d="M180.678 155.739V174.75H179.518V155.739H180.678ZM186.914 165.504V174.75H185.781V160.492H186.886V162.748H186.997C187.331 162.011 187.867 161.42 188.603 160.975C189.34 160.529 190.215 160.306 191.23 160.306C192.189 160.306 193.031 160.51 193.755 160.919C194.485 161.327 195.055 161.909 195.463 162.664C195.878 163.413 196.085 164.307 196.085 165.347V174.75H194.952V165.393C194.952 164.18 194.59 163.205 193.866 162.469C193.149 161.726 192.199 161.355 191.017 161.355C190.224 161.355 189.519 161.528 188.9 161.875C188.281 162.221 187.796 162.707 187.443 163.332C187.09 163.951 186.914 164.675 186.914 165.504ZM209.851 163.564L208.802 163.843C208.635 163.323 208.397 162.874 208.087 162.497C207.778 162.119 207.388 161.829 206.918 161.624C206.454 161.414 205.897 161.309 205.247 161.309C204.201 161.309 203.344 161.569 202.676 162.088C202.013 162.608 201.682 163.286 201.682 164.121C201.682 164.802 201.908 165.365 202.36 165.811C202.812 166.25 203.502 166.584 204.43 166.813L206.621 167.361C207.747 167.639 208.595 168.091 209.164 168.716C209.734 169.335 210.018 170.106 210.018 171.028C210.018 171.814 209.805 172.51 209.378 173.116C208.951 173.723 208.36 174.196 207.605 174.536C206.856 174.877 205.983 175.047 204.987 175.047C203.657 175.047 202.564 174.738 201.71 174.119C200.856 173.494 200.309 172.6 200.067 171.436L201.153 171.158C201.357 172.086 201.781 172.794 202.425 173.283C203.075 173.766 203.926 174.007 204.978 174.007C206.141 174.007 207.079 173.732 207.79 173.181C208.508 172.63 208.867 171.925 208.867 171.065C208.867 170.409 208.657 169.855 208.236 169.403C207.815 168.951 207.178 168.62 206.324 168.41L204.049 167.853C202.886 167.568 202.013 167.113 201.432 166.488C200.85 165.857 200.559 165.081 200.559 164.158C200.559 163.391 200.76 162.717 201.163 162.135C201.565 161.553 202.119 161.098 202.824 160.77C203.53 160.442 204.337 160.278 205.247 160.278C206.454 160.278 207.438 160.563 208.199 161.132C208.96 161.702 209.511 162.512 209.851 163.564ZM213.938 180.097V160.492H215.042V163.676H215.182C215.404 163.063 215.717 162.5 216.119 161.986C216.528 161.473 217.032 161.061 217.632 160.752C218.239 160.436 218.95 160.278 219.767 160.278C220.918 160.278 221.921 160.594 222.775 161.225C223.629 161.856 224.291 162.729 224.761 163.843C225.232 164.951 225.467 166.222 225.467 167.658C225.467 169.094 225.229 170.369 224.752 171.483C224.282 172.59 223.62 173.463 222.766 174.1C221.918 174.731 220.925 175.047 219.786 175.047C218.975 175.047 218.264 174.892 217.651 174.583C217.044 174.273 216.534 173.862 216.119 173.348C215.711 172.828 215.398 172.259 215.182 171.64H215.07V180.097H213.938ZM215.052 167.649C215.052 168.862 215.237 169.948 215.609 170.907C215.98 171.86 216.512 172.615 217.205 173.172C217.898 173.723 218.725 173.998 219.684 173.998C220.655 173.998 221.488 173.72 222.181 173.163C222.88 172.6 223.412 171.838 223.777 170.879C224.149 169.92 224.334 168.843 224.334 167.649C224.334 166.454 224.152 165.381 223.787 164.428C223.422 163.475 222.893 162.723 222.199 162.172C221.506 161.615 220.668 161.337 219.684 161.337C218.712 161.337 217.88 161.612 217.187 162.163C216.5 162.707 215.971 163.456 215.599 164.409C215.234 165.356 215.052 166.436 215.052 167.649ZM229.438 174.75V160.492H230.561V174.75H229.438ZM230.004 157.967C229.756 157.967 229.54 157.88 229.354 157.707C229.175 157.534 229.085 157.323 229.085 157.076C229.085 156.828 229.175 156.618 229.354 156.445C229.533 156.271 229.75 156.185 230.004 156.185C230.251 156.185 230.465 156.271 230.644 156.445C230.83 156.618 230.923 156.828 230.923 157.076C230.923 157.323 230.833 157.534 230.654 157.707C230.474 157.88 230.258 157.967 230.004 157.967ZM235.304 174.75V160.492H236.409V162.72H236.511C236.82 161.989 237.343 161.405 238.08 160.965C238.816 160.52 239.655 160.297 240.595 160.297C240.694 160.297 240.793 160.297 240.892 160.297C240.991 160.297 241.084 160.3 241.171 160.306V161.448C241.097 161.442 241.007 161.432 240.902 161.42C240.803 161.402 240.679 161.392 240.53 161.392C239.738 161.392 239.033 161.562 238.414 161.903C237.801 162.243 237.319 162.713 236.966 163.314C236.613 163.908 236.437 164.589 236.437 165.356V174.75H235.304ZM247.991 175.056C247.168 175.056 246.413 174.892 245.726 174.564C245.046 174.236 244.498 173.757 244.083 173.126C243.675 172.494 243.471 171.727 243.471 170.823C243.471 170.229 243.576 169.706 243.786 169.255C243.997 168.803 244.322 168.413 244.761 168.085C245.2 167.757 245.763 167.488 246.45 167.277C247.137 167.061 247.957 166.894 248.91 166.776C249.634 166.69 250.281 166.606 250.85 166.526C251.42 166.439 251.865 166.306 252.187 166.126C252.515 165.947 252.679 165.675 252.679 165.31V164.715C252.679 163.676 252.351 162.85 251.695 162.237C251.039 161.624 250.136 161.318 248.985 161.318C247.963 161.318 247.103 161.544 246.404 161.996C245.711 162.441 245.225 163.017 244.947 163.722L243.879 163.323C244.151 162.642 244.544 162.076 245.058 161.624C245.578 161.173 246.172 160.835 246.84 160.612C247.515 160.39 248.22 160.278 248.957 160.278C249.594 160.278 250.201 160.368 250.776 160.548C251.358 160.727 251.875 160.999 252.326 161.364C252.784 161.73 253.146 162.197 253.412 162.766C253.678 163.329 253.812 164.004 253.812 164.79V174.75H252.679V172.179H252.596C252.348 172.711 252.008 173.197 251.574 173.636C251.147 174.069 250.631 174.416 250.024 174.676C249.424 174.929 248.746 175.056 247.991 175.056ZM248.103 174.007C248.994 174.007 249.783 173.791 250.47 173.358C251.163 172.918 251.704 172.318 252.094 171.557C252.484 170.796 252.679 169.932 252.679 168.967V166.869C252.537 166.993 252.329 167.104 252.057 167.203C251.791 167.296 251.488 167.38 251.147 167.454C250.813 167.522 250.46 167.584 250.089 167.639C249.724 167.689 249.368 167.735 249.022 167.779C247.982 167.902 247.134 168.094 246.478 168.354C245.828 168.608 245.352 168.942 245.049 169.357C244.752 169.771 244.603 170.273 244.603 170.861C244.603 171.832 244.937 172.6 245.606 173.163C246.274 173.726 247.106 174.007 248.103 174.007ZM263.6 160.492V161.504H257.371V160.492H263.6ZM259.479 157.076H260.602V171.38C260.602 171.962 260.713 172.439 260.936 172.81C261.165 173.175 261.462 173.447 261.827 173.627C262.198 173.8 262.594 173.887 263.015 173.887C263.22 173.887 263.396 173.871 263.544 173.84C263.699 173.809 263.845 173.769 263.981 173.72L264.259 174.75C264.086 174.812 263.894 174.864 263.684 174.908C263.473 174.957 263.226 174.982 262.941 174.982C262.347 174.982 261.784 174.849 261.252 174.583C260.726 174.317 260.299 173.93 259.971 173.423C259.643 172.915 259.479 172.302 259.479 171.585V157.076ZM267.856 174.75V160.492H268.979V174.75H267.856ZM268.422 157.967C268.175 157.967 267.958 157.88 267.773 157.707C267.593 157.534 267.503 157.323 267.503 157.076C267.503 156.828 267.593 156.618 267.773 156.445C267.952 156.271 268.169 156.185 268.422 156.185C268.67 156.185 268.884 156.271 269.063 156.445C269.249 156.618 269.341 156.828 269.341 157.076C269.341 157.323 269.252 157.534 269.072 157.707C268.893 157.88 268.676 157.967 268.422 157.967ZM279.023 175.047C277.847 175.047 276.802 174.731 275.886 174.1C274.97 173.463 274.249 172.587 273.723 171.473C273.197 170.359 272.934 169.091 272.934 167.667C272.934 166.238 273.197 164.969 273.723 163.861C274.249 162.748 274.97 161.872 275.886 161.234C276.802 160.597 277.847 160.278 279.023 160.278C280.199 160.278 281.245 160.597 282.161 161.234C283.077 161.872 283.798 162.748 284.324 163.861C284.85 164.975 285.113 166.244 285.113 167.667C285.113 169.091 284.85 170.359 284.324 171.473C283.798 172.587 283.077 173.463 282.161 174.1C281.245 174.731 280.199 175.047 279.023 175.047ZM279.023 173.998C280.02 173.998 280.889 173.717 281.632 173.153C282.381 172.59 282.959 171.829 283.368 170.87C283.782 169.911 283.99 168.843 283.99 167.667C283.99 166.492 283.782 165.427 283.368 164.474C282.953 163.515 282.374 162.754 281.632 162.191C280.889 161.621 280.02 161.337 279.023 161.337C278.027 161.337 277.157 161.621 276.415 162.191C275.672 162.754 275.094 163.515 274.679 164.474C274.264 165.427 274.057 166.492 274.057 167.667C274.057 168.843 274.261 169.911 274.67 170.87C275.084 171.829 275.663 172.59 276.406 173.153C277.154 173.717 278.027 173.998 279.023 173.998ZM290.146 165.504V174.75H289.014V160.492H290.118V162.748H290.23C290.564 162.011 291.099 161.42 291.836 160.975C292.572 160.529 293.448 160.306 294.463 160.306C295.422 160.306 296.264 160.51 296.988 160.919C297.718 161.327 298.287 161.909 298.696 162.664C299.11 163.413 299.318 164.307 299.318 165.347V174.75H298.185V165.393C298.185 164.18 297.823 163.205 297.099 162.469C296.381 161.726 295.431 161.355 294.249 161.355C293.457 161.355 292.752 161.528 292.133 161.875C291.514 162.221 291.028 162.707 290.675 163.332C290.323 163.951 290.146 164.675 290.146 165.504ZM313.334 149.613V180.877H312.323V149.613H313.334ZM327.894 155.739V174.75H326.734V155.739H327.894ZM337.889 175.047C336.744 175.047 335.745 174.731 334.891 174.1C334.037 173.469 333.375 172.6 332.905 171.492C332.44 170.378 332.208 169.1 332.208 167.658C332.208 166.229 332.443 164.96 332.914 163.852C333.39 162.738 334.056 161.866 334.91 161.234C335.764 160.597 336.76 160.278 337.899 160.278C338.715 160.278 339.424 160.436 340.024 160.752C340.631 161.061 341.138 161.473 341.547 161.986C341.961 162.5 342.277 163.063 342.494 163.676H342.605V155.739H343.728V174.75H342.633V171.64H342.494C342.265 172.253 341.946 172.819 341.537 173.339C341.129 173.853 340.622 174.267 340.015 174.583C339.409 174.892 338.7 175.047 337.889 175.047ZM337.991 173.998C338.957 173.998 339.783 173.723 340.47 173.172C341.163 172.615 341.692 171.86 342.057 170.907C342.429 169.948 342.614 168.862 342.614 167.649C342.614 166.436 342.429 165.356 342.057 164.409C341.692 163.456 341.163 162.707 340.47 162.163C339.783 161.612 338.957 161.337 337.991 161.337C337.014 161.337 336.175 161.615 335.476 162.172C334.783 162.723 334.251 163.475 333.879 164.428C333.514 165.381 333.332 166.454 333.332 167.649C333.332 168.843 333.514 169.92 333.879 170.879C334.251 171.838 334.783 172.6 335.476 173.163C336.175 173.72 337.014 173.998 337.991 173.998ZM354.385 175.047C353.097 175.047 351.977 174.728 351.024 174.091C350.071 173.454 349.335 172.581 348.815 171.473C348.295 170.365 348.035 169.103 348.035 167.686C348.035 166.263 348.295 164.994 348.815 163.88C349.341 162.766 350.062 161.887 350.978 161.244C351.894 160.6 352.94 160.278 354.115 160.278C354.914 160.278 355.669 160.439 356.38 160.761C357.098 161.077 357.729 161.535 358.274 162.135C358.825 162.735 359.255 163.459 359.564 164.307C359.88 165.155 360.038 166.108 360.038 167.166V167.872H348.75V166.841H358.905C358.905 165.808 358.695 164.876 358.274 164.047C357.853 163.218 357.281 162.559 356.557 162.07C355.833 161.581 355.019 161.337 354.115 161.337C353.169 161.337 352.324 161.603 351.581 162.135C350.845 162.661 350.26 163.373 349.827 164.27C349.4 165.167 349.177 166.17 349.158 167.277V167.742C349.158 168.93 349.366 169.997 349.78 170.944C350.201 171.885 350.802 172.63 351.581 173.181C352.361 173.726 353.295 173.998 354.385 173.998C355.164 173.998 355.83 173.868 356.38 173.608C356.937 173.342 357.392 173.02 357.745 172.643C358.098 172.265 358.364 171.9 358.543 171.547L359.574 171.965C359.357 172.442 359.02 172.918 358.562 173.395C358.11 173.865 357.535 174.258 356.835 174.574C356.142 174.889 355.325 175.047 354.385 175.047ZM367.715 175.056C366.891 175.056 366.136 174.892 365.45 174.564C364.769 174.236 364.221 173.757 363.807 173.126C363.398 172.494 363.194 171.727 363.194 170.823C363.194 170.229 363.299 169.706 363.509 169.255C363.72 168.803 364.045 168.413 364.484 168.085C364.924 167.757 365.487 167.488 366.174 167.277C366.861 167.061 367.681 166.894 368.634 166.776C369.358 166.69 370.004 166.606 370.574 166.526C371.143 166.439 371.589 166.306 371.91 166.126C372.238 165.947 372.402 165.675 372.402 165.31V164.715C372.402 163.676 372.074 162.85 371.418 162.237C370.762 161.624 369.859 161.318 368.708 161.318C367.687 161.318 366.827 161.544 366.127 161.996C365.434 162.441 364.948 163.017 364.67 163.722L363.602 163.323C363.875 162.642 364.268 162.076 364.781 161.624C365.301 161.173 365.895 160.835 366.563 160.612C367.238 160.39 367.944 160.278 368.68 160.278C369.317 160.278 369.924 160.368 370.499 160.548C371.081 160.727 371.598 160.999 372.05 161.364C372.507 161.73 372.87 162.197 373.136 162.766C373.402 163.329 373.535 164.004 373.535 164.79V174.75H372.402V172.179H372.319C372.071 172.711 371.731 173.197 371.298 173.636C370.871 174.069 370.354 174.416 369.747 174.676C369.147 174.929 368.47 175.056 367.715 175.056ZM367.826 174.007C368.717 174.007 369.506 173.791 370.193 173.358C370.886 172.918 371.428 172.318 371.817 171.557C372.207 170.796 372.402 169.932 372.402 168.967V166.869C372.26 166.993 372.053 167.104 371.78 167.203C371.514 167.296 371.211 167.38 370.871 167.454C370.536 167.522 370.184 167.584 369.812 167.639C369.447 167.689 369.091 167.735 368.745 167.779C367.705 167.902 366.857 168.094 366.201 168.354C365.552 168.608 365.075 168.942 364.772 169.357C364.475 169.771 364.326 170.273 364.326 170.861C364.326 171.832 364.661 172.6 365.329 173.163C365.997 173.726 366.83 174.007 367.826 174.007ZM383.323 160.492V161.504H377.095V160.492H383.323ZM379.202 157.076H380.325V171.38C380.325 171.962 380.436 172.439 380.659 172.81C380.888 173.175 381.185 173.447 381.55 173.627C381.922 173.8 382.318 173.887 382.739 173.887C382.943 173.887 383.119 173.871 383.268 173.84C383.422 173.809 383.568 173.769 383.704 173.72L383.982 174.75C383.809 174.812 383.617 174.864 383.407 174.908C383.196 174.957 382.949 174.982 382.664 174.982C382.07 174.982 381.507 174.849 380.975 174.583C380.449 174.317 380.022 173.93 379.694 173.423C379.366 172.915 379.202 172.302 379.202 171.585V157.076ZM387.579 174.75V160.492H388.703V174.75H387.579ZM388.146 157.967C387.898 157.967 387.682 157.88 387.496 157.707C387.316 157.534 387.227 157.323 387.227 157.076C387.227 156.828 387.316 156.618 387.496 156.445C387.675 156.271 387.892 156.185 388.146 156.185C388.393 156.185 388.607 156.271 388.786 156.445C388.972 156.618 389.065 156.828 389.065 157.076C389.065 157.323 388.975 157.534 388.795 157.707C388.616 157.88 388.399 157.967 388.146 157.967ZM398.747 175.047C397.571 175.047 396.525 174.731 395.609 174.1C394.693 173.463 393.972 172.587 393.446 171.473C392.92 170.359 392.657 169.091 392.657 167.667C392.657 166.238 392.92 164.969 393.446 163.861C393.972 162.748 394.693 161.872 395.609 161.234C396.525 160.597 397.571 160.278 398.747 160.278C399.922 160.278 400.968 160.597 401.884 161.234C402.8 161.872 403.521 162.748 404.047 163.861C404.573 164.975 404.836 166.244 404.836 167.667C404.836 169.091 404.573 170.359 404.047 171.473C403.521 172.587 402.8 173.463 401.884 174.1C400.968 174.731 399.922 175.047 398.747 175.047ZM398.747 173.998C399.743 173.998 400.612 173.717 401.355 173.153C402.104 172.59 402.682 171.829 403.091 170.87C403.505 169.911 403.713 168.843 403.713 167.667C403.713 166.492 403.505 165.427 403.091 164.474C402.676 163.515 402.098 162.754 401.355 162.191C400.612 161.621 399.743 161.337 398.747 161.337C397.75 161.337 396.881 161.621 396.138 162.191C395.395 162.754 394.817 163.515 394.402 164.474C393.988 165.427 393.78 166.492 393.78 167.667C393.78 168.843 393.985 169.911 394.393 170.87C394.808 171.829 395.386 172.59 396.129 173.153C396.878 173.717 397.75 173.998 398.747 173.998ZM409.869 165.504V174.75H408.737V160.492H409.842V162.748H409.953C410.287 162.011 410.822 161.42 411.559 160.975C412.295 160.529 413.171 160.306 414.186 160.306C415.145 160.306 415.987 160.51 416.711 160.919C417.441 161.327 418.01 161.909 418.419 162.664C418.833 163.413 419.041 164.307 419.041 165.347V174.75H417.908V165.393C417.908 164.18 417.546 163.205 416.822 162.469C416.104 161.726 415.154 161.355 413.972 161.355C413.18 161.355 412.475 161.528 411.856 161.875C411.237 162.221 410.751 162.707 410.399 163.332C410.046 163.951 409.869 164.675 409.869 165.504ZM433.058 149.613V180.877H432.046V149.613H433.058ZM447.617 155.739V174.75H446.457V155.739H447.617ZM453.853 165.504V174.75H452.721V160.492H453.825V162.748H453.937C454.271 162.011 454.806 161.42 455.543 160.975C456.279 160.529 457.155 160.306 458.17 160.306C459.129 160.306 459.97 160.51 460.694 160.919C461.425 161.327 461.994 161.909 462.402 162.664C462.817 163.413 463.024 164.307 463.024 165.347V174.75H461.892V165.393C461.892 164.18 461.53 163.205 460.806 162.469C460.088 161.726 459.138 161.355 457.956 161.355C457.164 161.355 456.458 161.528 455.84 161.875C455.221 162.221 454.735 162.707 454.382 163.332C454.029 163.951 453.853 164.675 453.853 165.504ZM468.863 165.504V174.75H467.731V160.492H468.835V162.748H468.947C469.281 162.011 469.816 161.42 470.553 160.975C471.289 160.529 472.165 160.306 473.18 160.306C474.139 160.306 474.98 160.51 475.705 160.919C476.435 161.327 477.004 161.909 477.413 162.664C477.827 163.413 478.034 164.307 478.034 165.347V174.75H476.902V165.393C476.902 164.18 476.54 163.205 475.816 162.469C475.098 161.726 474.148 161.355 472.966 161.355C472.174 161.355 471.469 161.528 470.85 161.875C470.231 162.221 469.745 162.707 469.392 163.332C469.04 163.951 468.863 164.675 468.863 165.504ZM488.041 175.047C486.865 175.047 485.82 174.731 484.904 174.1C483.988 173.463 483.267 172.587 482.741 171.473C482.215 170.359 481.952 169.091 481.952 167.667C481.952 166.238 482.215 164.969 482.741 163.861C483.267 162.748 483.988 161.872 484.904 161.234C485.82 160.597 486.865 160.278 488.041 160.278C489.217 160.278 490.263 160.597 491.179 161.234C492.095 161.872 492.816 162.748 493.342 163.861C493.868 164.975 494.131 166.244 494.131 167.667C494.131 169.091 493.868 170.359 493.342 171.473C492.816 172.587 492.095 173.463 491.179 174.1C490.263 174.731 489.217 175.047 488.041 175.047ZM488.041 173.998C489.038 173.998 489.907 173.717 490.65 173.153C491.398 172.59 491.977 171.829 492.385 170.87C492.8 169.911 493.007 168.843 493.007 167.667C493.007 166.492 492.8 165.427 492.385 164.474C491.971 163.515 491.392 162.754 490.65 162.191C489.907 161.621 489.038 161.337 488.041 161.337C487.045 161.337 486.175 161.621 485.433 162.191C484.69 162.754 484.111 163.515 483.697 164.474C483.282 165.427 483.075 166.492 483.075 167.667C483.075 168.843 483.279 169.911 483.688 170.87C484.102 171.829 484.681 172.59 485.423 173.153C486.172 173.717 487.045 173.998 488.041 173.998ZM507.946 160.492L502.794 174.75H501.513L496.361 160.492H497.577L502.107 173.293H502.2L506.73 160.492H507.946ZM514.829 175.056C514.006 175.056 513.251 174.892 512.564 174.564C511.883 174.236 511.335 173.757 510.921 173.126C510.512 172.494 510.308 171.727 510.308 170.823C510.308 170.229 510.413 169.706 510.624 169.255C510.834 168.803 511.159 168.413 511.598 168.085C512.038 167.757 512.601 167.488 513.288 167.277C513.975 167.061 514.795 166.894 515.748 166.776C516.472 166.69 517.118 166.606 517.688 166.526C518.257 166.439 518.703 166.306 519.024 166.126C519.352 165.947 519.516 165.675 519.516 165.31V164.715C519.516 163.676 519.188 162.85 518.532 162.237C517.876 161.624 516.973 161.318 515.822 161.318C514.801 161.318 513.941 161.544 513.241 161.996C512.548 162.441 512.062 163.017 511.784 163.722L510.716 163.323C510.989 162.642 511.382 162.076 511.895 161.624C512.415 161.173 513.009 160.835 513.678 160.612C514.352 160.39 515.058 160.278 515.794 160.278C516.431 160.278 517.038 160.368 517.613 160.548C518.195 160.727 518.712 160.999 519.164 161.364C519.622 161.73 519.984 162.197 520.25 162.766C520.516 163.329 520.649 164.004 520.649 164.79V174.75H519.516V172.179H519.433C519.185 172.711 518.845 173.197 518.412 173.636C517.985 174.069 517.468 174.416 516.862 174.676C516.261 174.929 515.584 175.056 514.829 175.056ZM514.94 174.007C515.831 174.007 516.62 173.791 517.307 173.358C518 172.918 518.542 172.318 518.932 171.557C519.321 170.796 519.516 169.932 519.516 168.967V166.869C519.374 166.993 519.167 167.104 518.894 167.203C518.628 167.296 518.325 167.38 517.985 167.454C517.651 167.522 517.298 167.584 516.927 167.639C516.561 167.689 516.206 167.735 515.859 167.779C514.819 167.902 513.972 168.094 513.316 168.354C512.666 168.608 512.189 168.942 511.886 169.357C511.589 169.771 511.44 170.273 511.44 170.861C511.44 171.832 511.775 172.6 512.443 173.163C513.111 173.726 513.944 174.007 514.94 174.007ZM530.437 160.492V161.504H524.209V160.492H530.437ZM526.316 157.076H527.439V171.38C527.439 171.962 527.551 172.439 527.773 172.81C528.002 173.175 528.299 173.447 528.664 173.627C529.036 173.8 529.432 173.887 529.853 173.887C530.057 173.887 530.233 173.871 530.382 173.84C530.536 173.809 530.682 173.769 530.818 173.72L531.097 174.75C530.923 174.812 530.731 174.864 530.521 174.908C530.311 174.957 530.063 174.982 529.778 174.982C529.184 174.982 528.621 174.849 528.089 174.583C527.563 174.317 527.136 173.93 526.808 173.423C526.48 172.915 526.316 172.302 526.316 171.585V157.076ZM534.694 174.75V160.492H535.817V174.75H534.694ZM535.26 157.967C535.012 157.967 534.796 157.88 534.61 157.707C534.431 157.534 534.341 157.323 534.341 157.076C534.341 156.828 534.431 156.618 534.61 156.445C534.789 156.271 535.006 156.185 535.26 156.185C535.507 156.185 535.721 156.271 535.9 156.445C536.086 156.618 536.179 156.828 536.179 157.076C536.179 157.323 536.089 157.534 535.91 157.707C535.73 157.88 535.514 157.967 535.26 157.967ZM545.861 175.047C544.685 175.047 543.639 174.731 542.723 174.1C541.807 173.463 541.086 172.587 540.56 171.473C540.034 170.359 539.771 169.091 539.771 167.667C539.771 166.238 540.034 164.969 540.56 163.861C541.086 162.748 541.807 161.872 542.723 161.234C543.639 160.597 544.685 160.278 545.861 160.278C547.036 160.278 548.082 160.597 548.998 161.234C549.914 161.872 550.635 162.748 551.161 163.861C551.687 164.975 551.95 166.244 551.95 167.667C551.95 169.091 551.687 170.359 551.161 171.473C550.635 172.587 549.914 173.463 548.998 174.1C548.082 174.731 547.036 175.047 545.861 175.047ZM545.861 173.998C546.857 173.998 547.726 173.717 548.469 173.153C549.218 172.59 549.796 171.829 550.205 170.87C550.62 169.911 550.827 168.843 550.827 167.667C550.827 166.492 550.62 165.427 550.205 164.474C549.79 163.515 549.212 162.754 548.469 162.191C547.726 161.621 546.857 161.337 545.861 161.337C544.864 161.337 543.995 161.621 543.252 162.191C542.51 162.754 541.931 163.515 541.516 164.474C541.102 165.427 540.894 166.492 540.894 167.667C540.894 168.843 541.099 169.911 541.507 170.87C541.922 171.829 542.5 172.59 543.243 173.153C543.992 173.717 544.864 173.998 545.861 173.998ZM556.984 165.504V174.75H555.851V160.492H556.956V162.748H557.067C557.401 162.011 557.937 161.42 558.673 160.975C559.409 160.529 560.285 160.306 561.3 160.306C562.259 160.306 563.101 160.51 563.825 160.919C564.555 161.327 565.124 161.909 565.533 162.664C565.947 163.413 566.155 164.307 566.155 165.347V174.75H565.022V165.393C565.022 164.18 564.66 163.205 563.936 162.469C563.218 161.726 562.268 161.355 561.086 161.355C560.294 161.355 559.589 161.528 558.97 161.875C558.351 162.221 557.865 162.707 557.513 163.332C557.16 163.951 556.984 164.675 556.984 165.504Z" fill="white"/>
</g>
<defs>
<clipPath id="clip0_56_48">
<rect width="566" height="214" fill="white"/>
</clipPath>
</defs>
</svg>
