<svg width="482" height="482" viewBox="0 0 482 482" fill="none" xmlns="http://www.w3.org/2000/svg">
<g clip-path="url(#clip0_65_130)">
<path d="M426.513 106.21L245.763 45.9595C242.671 44.9287 239.328 44.9287 236.236 45.9595L55.4865 106.21C52.4872 107.209 49.8787 109.128 48.0302 111.692C46.1818 114.257 45.1873 117.339 45.1875 120.5V271.125C45.1875 275.12 46.7744 278.951 49.5992 281.776C52.424 284.601 56.2552 286.188 60.25 286.188C64.2448 286.188 68.076 284.601 70.9008 281.776C73.7255 278.951 75.3125 275.12 75.3125 271.125V141.399L138.556 162.468C121.753 189.614 116.41 222.32 123.699 253.402C130.989 284.485 150.316 311.404 177.436 328.25C143.545 341.542 114.249 365.586 92.8226 398.46C91.7083 400.116 90.9342 401.977 90.5455 403.935C90.1568 405.893 90.1612 407.909 90.5583 409.865C90.9555 411.821 91.7375 413.679 92.859 415.331C93.9805 416.982 95.419 418.394 97.091 419.484C98.7629 420.575 100.635 421.322 102.598 421.683C104.562 422.044 106.577 422.01 108.527 421.585C110.478 421.16 112.324 420.352 113.959 419.207C115.594 418.062 116.986 416.603 118.052 414.916C146.426 371.385 191.237 346.438 241 346.438C290.762 346.438 335.573 371.385 363.947 414.916C366.156 418.199 369.569 420.481 373.447 421.269C377.326 422.056 381.358 421.285 384.673 419.123C387.988 416.961 390.318 413.582 391.161 409.715C392.004 405.848 391.291 401.805 389.177 398.46C367.75 365.586 338.341 341.542 304.563 328.25C331.658 311.405 350.966 284.503 358.254 253.443C365.543 222.383 360.217 189.701 343.443 162.562L426.513 134.885C429.513 133.886 432.122 131.968 433.971 129.403C435.82 126.838 436.815 123.756 436.815 120.594C436.815 117.432 435.82 114.351 433.971 111.786C432.122 109.221 429.513 107.303 426.513 106.304V106.21ZM331.375 225.938C331.379 240.225 327.995 254.311 321.501 267.038C315.008 279.765 305.589 290.771 294.018 299.153C282.447 307.535 269.054 313.054 254.937 315.257C240.82 317.461 226.382 316.286 212.807 311.829C199.233 307.371 186.908 299.759 176.845 289.617C166.781 279.474 159.266 267.09 154.916 253.481C150.566 239.871 149.504 225.424 151.818 211.325C154.132 197.226 159.757 183.876 168.229 172.372L236.236 194.965C239.328 195.996 242.671 195.996 245.763 194.965L313.77 172.372C325.214 187.886 331.384 206.659 331.375 225.938Z" fill="white"/>
</g>
<defs>
<clipPath id="clip0_65_130">
<rect width="482" height="482" fill="white"/>
</clipPath>
</defs>
</svg>
