<svg width="300" height="300" viewBox="0 0 300 300" fill="none" xmlns="http://www.w3.org/2000/svg">
<g clip-path="url(#clip0_65_129)">
<path d="M265.925 63.2242L154.925 26.2241C153.026 25.5911 150.973 25.5911 149.074 26.2241L38.0747 63.2242C36.2328 63.8382 34.6309 65.0161 33.4957 66.5912C32.3606 68.1663 31.7499 70.0586 31.75 72.0001V164.5C31.75 166.953 32.7245 169.306 34.4593 171.041C36.194 172.776 38.5467 173.75 41 173.75C43.4532 173.75 45.806 172.776 47.5407 171.041C49.2754 169.306 50.25 166.953 50.25 164.5V84.8345L89.0883 97.7729C78.7695 114.444 75.4882 134.528 79.9648 153.616C84.4414 172.705 96.3101 189.236 112.965 199.581C92.1524 207.744 74.1612 222.509 61.0031 242.697C60.3188 243.714 59.8434 244.857 59.6047 246.06C59.366 247.262 59.3687 248.5 59.6126 249.701C59.8565 250.903 60.3367 252.044 61.0254 253.058C61.7141 254.072 62.5976 254.939 63.6243 255.609C64.6511 256.278 65.8007 256.737 67.0064 256.959C68.2121 257.18 69.4498 257.16 70.6475 256.899C71.8453 256.638 72.9792 256.141 73.9833 255.438C74.9875 254.735 75.8419 253.839 76.4968 252.803C93.9215 226.07 121.44 210.75 152 210.75C182.559 210.75 210.078 226.07 227.503 252.803C228.859 254.819 230.955 256.221 233.337 256.704C235.719 257.188 238.195 256.715 240.231 255.387C242.266 254.059 243.698 251.984 244.215 249.609C244.733 247.235 244.295 244.752 242.997 242.697C229.838 222.509 211.778 207.744 191.035 199.581C207.673 189.236 219.531 172.716 224.007 153.642C228.483 134.567 225.212 114.497 214.911 97.8307L265.925 80.8339C267.767 80.2202 269.37 79.0424 270.505 77.4673C271.641 75.8922 272.252 73.9997 272.252 72.0579C272.252 70.1162 271.641 68.2237 270.505 66.6485C269.37 65.0734 267.767 63.8956 265.925 63.282V63.2242ZM207.5 136.75C207.502 145.524 205.424 154.174 201.437 161.99C197.449 169.806 191.665 176.565 184.559 181.712C177.453 186.859 169.228 190.249 160.559 191.602C151.89 192.955 143.023 192.234 134.687 189.496C126.35 186.759 118.782 182.085 112.602 175.856C106.422 169.627 101.807 162.022 99.1351 153.665C96.4635 145.307 95.8116 136.435 97.2328 127.776C98.6539 119.118 102.108 110.92 107.311 103.855L149.074 117.73C150.973 118.363 153.026 118.363 154.925 117.73L196.689 103.855C203.716 113.382 207.505 124.911 207.5 136.75Z" fill="white"/>
</g>
<defs>
<clipPath id="clip0_65_129">
<rect width="300" height="300" fill="white"/>
</clipPath>
</defs>
</svg>
