<svg width="120" height="120" viewBox="0 0 120 120" fill="none" xmlns="http://www.w3.org/2000/svg">
<g clip-path="url(#clip0_65_128)">
<path d="M106.186 26.4422L61.1859 11.4422C60.4161 11.1856 59.5839 11.1856 58.8141 11.4422L13.8141 26.4422C13.0674 26.6911 12.4179 27.1687 11.9577 27.8072C11.4975 28.4458 11.2499 29.2129 11.25 30V67.5C11.25 68.4946 11.6451 69.4484 12.3483 70.1517C13.0516 70.8549 14.0054 71.25 15 71.25C15.9946 71.25 16.9484 70.8549 17.6516 70.1517C18.3549 69.4484 18.75 68.4946 18.75 67.5V35.2032L34.4953 40.4485C30.312 47.2069 28.9817 55.3493 30.7966 63.0877C32.6114 70.8261 37.4231 77.528 44.175 81.7219C35.7375 85.0313 28.4437 91.0172 23.1094 99.2016C22.8319 99.6139 22.6392 100.077 22.5425 100.565C22.4457 101.052 22.4468 101.554 22.5457 102.041C22.6445 102.528 22.8392 102.991 23.1184 103.402C23.3976 103.813 23.7558 104.164 24.172 104.436C24.5883 104.707 25.0544 104.893 25.5432 104.983C26.032 105.073 26.5337 105.065 27.0193 104.959C27.5049 104.853 27.9646 104.652 28.3716 104.367C28.7787 104.082 29.1251 103.719 29.3906 103.298C36.4547 92.461 47.6109 86.25 60 86.25C72.3891 86.25 83.5453 92.461 90.6094 103.298C91.1594 104.116 92.009 104.684 92.9746 104.88C93.9402 105.076 94.9441 104.884 95.7693 104.346C96.5946 103.808 97.1748 102.966 97.3847 102.004C97.5945 101.041 97.417 100.034 96.8906 99.2016C91.5562 91.0172 84.2344 85.0313 75.825 81.7219C82.5705 77.5282 87.3775 70.8307 89.1921 63.0979C91.0066 55.3651 89.6806 47.2284 85.5047 40.4719L106.186 33.5813C106.933 33.3325 107.582 32.855 108.043 32.2165C108.503 31.5779 108.751 30.8107 108.751 30.0235C108.751 29.2363 108.503 28.469 108.043 27.8305C107.582 27.1919 106.933 26.7144 106.186 26.4657V26.4422ZM82.5 56.25C82.501 59.8072 81.6586 63.3139 80.0419 66.4824C78.4253 69.6509 76.0804 72.391 73.1997 74.4778C70.319 76.5646 66.9845 77.9387 63.4699 78.4872C59.9554 79.0358 56.3608 78.7433 52.9812 77.6336C49.6015 76.524 46.5331 74.6289 44.0278 72.1037C41.5224 69.5786 39.6514 66.4954 38.5683 63.1072C37.4853 59.719 37.2209 56.1222 37.7971 52.612C38.3733 49.1019 39.7735 45.7783 41.8828 42.9141L58.8141 48.5391C59.5839 48.7957 60.4161 48.7957 61.1859 48.5391L78.1172 42.9141C80.9662 46.7766 82.5023 51.4505 82.5 56.25Z" fill="white"/>
</g>
<defs>
<clipPath id="clip0_65_128">
<rect width="120" height="120" fill="white"/>
</clipPath>
</defs>
</svg>
