<svg width="482" height="482" viewBox="0 0 482 482" fill="none" xmlns="http://www.w3.org/2000/svg">
<path d="M335.797 114.323V69.6129C335.797 61.7077 332.941 54.1264 327.859 48.5366C322.776 42.9468 315.883 39.8065 308.695 39.8065C301.507 39.8065 294.614 42.9468 289.531 48.5366C284.449 54.1264 281.593 61.7077 281.593 69.6129V39.8065C281.593 31.9013 278.738 24.3199 273.655 18.7301C268.573 13.1403 261.68 10 254.492 10C247.304 10 240.411 13.1403 235.328 18.7301C230.245 24.3199 227.39 31.9013 227.39 39.8065V84.5161C227.39 76.611 224.535 69.0296 219.452 63.4398C214.37 57.85 207.476 54.7097 200.288 54.7097C193.101 54.7097 186.207 57.85 181.125 63.4398C176.042 69.0296 173.187 76.611 173.187 84.5161V263.355L158.904 224.13C155.305 214.22 148.664 206.009 140.133 200.923C131.603 195.838 121.723 194.199 112.208 196.29C108.231 197.167 104.491 199.041 101.279 201.765C98.0662 204.489 95.4679 207.99 93.6853 211.998C91.9028 216.005 90.984 220.41 91.0002 224.872C91.0164 229.333 91.9673 233.73 93.7789 237.721L146.085 352.774L146.898 356.351C162.346 424.31 217.904 472 281.593 472C310.345 472 337.918 459.439 358.248 437.08C378.579 414.72 390 384.395 390 352.774V114.323C390 106.417 387.145 98.836 382.062 93.2462C376.98 87.6564 370.086 84.5161 362.898 84.5161C355.711 84.5161 348.817 87.6564 343.735 93.2462C338.652 98.836 335.797 106.417 335.797 114.323ZM335.797 114.323V233.548M227.39 54.7097V233.548M281.593 54.7097V203.742" stroke="white" stroke-width="6" stroke-linecap="round" stroke-linejoin="round"/>
</svg>
