<svg width="300" height="300" viewBox="0 0 300 300" fill="none" xmlns="http://www.w3.org/2000/svg">
<path d="M209.919 70.7097V42.5484C209.919 37.5692 208.124 32.7939 204.928 29.273C201.732 25.7522 197.398 23.7742 192.878 23.7742C188.359 23.7742 184.025 25.7522 180.829 29.273C177.633 32.7939 175.838 37.5692 175.838 42.5484V23.7742C175.838 18.795 174.043 14.0197 170.847 10.4988C167.651 6.97799 163.317 5 158.797 5C154.278 5 149.944 6.97799 146.748 10.4988C143.552 14.0197 141.757 18.795 141.757 23.7742V51.9355C141.757 46.9563 139.962 42.181 136.766 38.6601C133.57 35.1393 129.236 33.1613 124.716 33.1613C120.197 33.1613 115.863 35.1393 112.667 38.6601C109.471 42.181 107.676 46.9563 107.676 51.9355V164.581L98.6956 139.874C96.4326 133.632 92.2567 128.46 86.8932 125.257C81.5297 122.054 75.3173 121.021 69.3348 122.339C66.8341 122.891 64.4826 124.071 62.4628 125.787C60.443 127.503 58.8092 129.708 57.6884 132.232C56.5676 134.756 55.9899 137.531 56.0001 140.341C56.0103 143.151 56.6082 145.921 57.7473 148.435L90.6355 220.903L91.1467 223.156C100.86 265.961 135.793 296 175.838 296C193.916 296 211.253 288.088 224.036 274.005C236.819 259.921 244 240.82 244 220.903V70.7097C244 65.7304 242.205 60.9552 239.009 57.4343C235.813 53.9135 231.479 51.9355 226.959 51.9355C222.44 51.9355 218.106 53.9135 214.91 57.4343C211.714 60.9552 209.919 65.7304 209.919 70.7097ZM209.919 70.7097V145.806M141.757 33.1613V145.806M175.838 33.1613V127.032" stroke="white" stroke-width="6" stroke-linecap="round" stroke-linejoin="round"/>
</svg>
