<svg width="120" height="120" viewBox="0 0 120 120" fill="none" xmlns="http://www.w3.org/2000/svg">
<path d="M81.6728 31.7097V21.5484C81.6728 19.7518 81.0234 18.0287 79.8676 16.7583C78.7117 15.4879 77.1439 14.7742 75.5092 14.7742C73.8746 14.7742 72.3068 15.4879 71.1509 16.7583C69.995 18.0287 69.3457 19.7518 69.3457 21.5484V14.7742C69.3457 12.9776 68.6963 11.2545 67.5404 9.98412C66.3845 8.71371 64.8167 8 63.1821 8C61.5474 8 59.9796 8.71371 58.8238 9.98412C57.6679 11.2545 57.0185 12.9776 57.0185 14.7742V24.9355C57.0185 23.1389 56.3691 21.4158 55.2132 20.1454C54.0573 18.875 52.4896 18.1613 50.8549 18.1613C49.2202 18.1613 47.6525 18.875 46.4966 20.1454C45.3407 21.4158 44.6913 23.1389 44.6913 24.9355V65.5806L41.4431 56.6658C40.6245 54.4135 39.1141 52.5475 37.1741 51.3917C35.2342 50.2359 32.9871 49.8633 30.8232 50.3387C29.9187 50.538 29.0682 50.9638 28.3376 51.5829C27.607 52.202 27.0161 52.9978 26.6107 53.9086C26.2053 54.8193 25.9964 55.8205 26 56.8344C26.0037 57.8483 26.22 58.8477 26.632 59.7548L38.5277 85.9032L38.7126 86.7161C42.2259 102.161 54.8612 113 69.3457 113C75.8844 113 82.1553 110.145 86.7789 105.064C91.4025 99.9819 94 93.0897 94 85.9032V31.7097C94 29.9131 93.3506 28.19 92.1947 26.9196C91.0388 25.6492 89.4711 24.9355 87.8364 24.9355C86.2017 24.9355 84.634 25.6492 83.4781 26.9196C82.3222 28.19 81.6728 29.9131 81.6728 31.7097ZM81.6728 31.7097V58.8065M57.0185 18.1613V58.8065M69.3457 18.1613V52.0323" stroke="white" stroke-width="3" stroke-linecap="round" stroke-linejoin="round"/>
</svg>
