<svg width="120" height="120" viewBox="0 0 120 120" fill="none" xmlns="http://www.w3.org/2000/svg">
<g clip-path="url(#clip0_65_143)">
<path d="M117.982 104.503C115.676 101.773 87.735 88.7765 82.6649 86.3249C77.6216 83.9161 75.6096 77.241 75.6096 77.241C75.6096 77.241 73.3394 78.7505 73.3394 74.511C73.3394 70.2662 75.6096 77.241 77.8798 60.8719C77.8798 60.8719 84.1784 58.7468 82.9276 41.1732H81.4141C81.4141 41.1732 85.1977 22.3845 81.4141 16.0253C77.6171 9.66601 76.1304 5.42651 67.7931 2.38606C59.4691 -0.649032 62.496 -0.044154 56.4511 0.266314C50.3973 0.57143 45.3585 4.51116 45.3585 6.62556C45.3585 6.62556 41.5748 6.93068 40.0703 8.75066C38.5569 10.5706 36.0374 19.0496 36.0374 21.1694C36.0374 23.2891 37.2971 37.5493 38.5569 40.5683L37.0568 41.1571C35.797 58.7361 42.0956 60.8665 42.0956 60.8665C44.3658 77.2357 46.636 70.2608 46.636 74.5057C46.636 78.7452 44.3658 77.2357 44.3658 77.2357C44.3658 77.2357 42.3494 83.9054 37.3105 86.3196C32.2716 88.7444 4.29954 101.773 2.02491 104.498C-0.245256 107.282 0.00846841 120 0.00846841 120H119.989C119.989 120 120.27 107.271 117.973 104.493L117.982 104.503ZM89.7826 116.547H69.4757V109.856H89.7826V116.547Z" fill="white"/>
</g>
<defs>
<clipPath id="clip0_65_143">
<rect width="120" height="120" fill="white"/>
</clipPath>
</defs>
</svg>
