<svg width="482" height="482" viewBox="0 0 482 482" fill="none" xmlns="http://www.w3.org/2000/svg">
<g clip-path="url(#clip0_65_145)">
<path d="M473.893 419.755C464.631 408.79 352.402 356.586 332.037 346.738C311.78 337.063 303.699 310.251 303.699 310.251C303.699 310.251 294.58 316.315 294.58 299.286C294.58 282.236 303.699 310.251 312.817 244.502C312.817 244.502 338.116 235.966 333.092 165.379H327.013C327.013 165.379 342.211 89.9111 327.013 64.3681C311.762 38.8251 305.79 21.7965 272.302 9.58402C238.868 -2.60695 251.026 -0.177352 226.745 1.0697C202.429 2.29524 182.19 18.1198 182.19 26.6127C182.19 26.6127 166.992 27.8382 160.949 35.1485C154.87 42.4588 144.75 76.5161 144.75 85.0304C144.75 93.5447 149.81 150.823 154.87 162.949L148.845 165.314C143.785 235.923 169.084 244.48 169.084 244.48C178.203 310.23 187.321 282.214 187.321 299.265C187.321 316.293 178.203 310.23 178.203 310.23C178.203 310.23 170.103 337.02 149.864 346.717C129.624 356.457 17.2698 408.79 8.13341 419.734C-0.985112 430.914 0.0340148 482 0.0340148 482H481.957C481.957 482 483.083 430.871 473.857 419.712L473.893 419.755ZM360.627 468.132H279.061V441.256H360.627V468.132Z" fill="white"/>
</g>
<defs>
<clipPath id="clip0_65_145">
<rect width="482" height="482" fill="white"/>
</clipPath>
</defs>
</svg>
