<svg width="300" height="300" viewBox="0 0 300 300" fill="none" xmlns="http://www.w3.org/2000/svg">
<g clip-path="url(#clip0_65_144)">
<path d="M294.954 261.258C289.19 254.433 219.337 221.941 206.662 215.812C194.054 209.79 189.024 193.103 189.024 193.103C189.024 193.103 183.349 196.876 183.349 186.278C183.349 175.665 189.024 193.103 194.699 152.18C194.699 152.18 210.446 146.867 207.319 102.933H203.535C203.535 102.933 212.994 55.9612 203.535 40.0631C194.043 24.165 190.326 13.5663 169.483 5.96516C148.673 -1.62258 156.24 -0.110385 141.128 0.665786C125.993 1.42857 113.396 11.2779 113.396 16.5639C113.396 16.5639 103.937 17.3267 100.176 21.8767C96.3921 26.4266 90.0935 47.6241 90.0935 52.9235C90.0935 58.2228 93.2428 93.8732 96.3921 101.421L92.6419 102.893C89.4926 146.84 105.239 152.166 105.239 152.166C110.915 193.089 116.59 175.652 116.59 186.264C116.59 196.863 110.915 193.089 110.915 193.089C110.915 193.089 105.873 209.763 93.2762 215.799C80.679 221.861 10.7488 254.433 5.06229 261.245C-0.61314 268.204 0.021171 300 0.021171 300H299.973C299.973 300 300.674 268.177 294.932 261.232L294.954 261.258ZM224.456 291.368H173.689V274.641H224.456V291.368Z" fill="white"/>
</g>
<defs>
<clipPath id="clip0_65_144">
<rect width="300" height="300" fill="white"/>
</clipPath>
</defs>
</svg>
