<svg width="110" height="121" viewBox="0 0 110 121" fill="none" xmlns="http://www.w3.org/2000/svg">
<path d="M78.7437 93.7574H10.7287C8.67869 93.7566 6.71286 92.8454 5.26352 91.2242C3.81418 89.603 3 87.4045 3 85.1122V11.6421C3 9.35006 3.81427 7.15191 5.26369 5.53121C6.71311 3.9105 8.67894 3 10.7287 3H50.4622L78.7437 93.7574Z" stroke="#F4F4F4" stroke-width="6" stroke-linecap="round" stroke-linejoin="round"/>
<path d="M57.8453 26.69H98.3229C100.372 26.6908 102.338 27.6016 103.787 29.2221C105.236 30.8426 106.051 33.0403 106.052 35.3321V108.802C106.052 111.094 105.237 113.292 103.788 114.913C102.338 116.534 100.373 117.444 98.3229 117.444H58.5894M58.5894 117.444L51.2064 93.7543M58.5894 117.444L78.7438 93.7574M32.518 20.2285C35.4232 20.2285 38.2095 21.519 40.2638 23.8161C42.318 26.1131 43.4721 29.2286 43.4721 32.4771V47.6209C43.4721 49.2294 43.1888 50.8222 42.6383 52.3083C42.0878 53.7943 41.2809 55.1446 40.2638 56.282C39.2466 57.4194 38.039 58.3216 36.71 58.9372C35.381 59.5527 33.9566 59.8695 32.518 59.8695C31.0795 59.8695 29.6551 59.5527 28.3261 58.9372C26.9971 58.3216 25.7895 57.4194 24.7723 56.282C23.7551 55.1446 22.9483 53.7943 22.3978 52.3083C21.8473 50.8222 21.5639 49.2294 21.5639 47.6209V32.4802C21.5639 29.2317 22.718 26.1162 24.7723 23.8191C26.8266 21.5221 29.6128 20.2316 32.518 20.2316V20.2285Z" stroke="#F4F4F4" stroke-width="6" stroke-linecap="round" stroke-linejoin="round"/>
<path d="M14.1449 51.2675C14.9564 55.8732 17.214 60.0267 20.5295 63.0138C23.845 66.0009 28.0112 67.6349 32.3119 67.6349C36.6125 67.6349 40.7787 66.0009 44.0942 63.0138C47.4097 60.0267 49.6673 55.8732 50.4788 51.2675M32.3105 67.6238V77.5736M64.9248 51.2675H95.693M74.2647 80.4935H95.693M69.7438 65.882H95.693" stroke="#F4F4F4" stroke-width="6" stroke-linecap="round" stroke-linejoin="round"/>
</svg>
