<svg width="482" height="482" viewBox="0 0 482 482" fill="none" xmlns="http://www.w3.org/2000/svg">
<path d="M321.572 352.835H93.874C87.0109 352.832 80.4298 349.782 75.5777 344.354C70.7257 338.927 68 331.567 68 323.893V77.9317C68 70.2585 70.726 62.8997 75.5783 57.4739C80.4306 52.0482 87.0118 49 93.874 49H226.893L321.572 352.835Z" stroke="#F4F4F4" stroke-width="6" stroke-linecap="round" stroke-linejoin="round"/>
<path d="M251.617 128.313H387.127C393.988 128.316 400.568 131.365 405.419 136.79C410.271 142.215 412.998 149.572 413 157.245V403.205C413 410.879 410.274 418.237 405.422 423.663C400.57 429.089 393.989 432.137 387.127 432.137H254.108M254.108 432.137L229.392 352.829M254.108 432.137L321.58 352.839M166.828 106.682C176.553 106.682 185.881 111.002 192.758 118.692C199.636 126.382 203.499 136.812 203.499 147.687V198.385C203.499 203.77 202.551 209.102 200.708 214.077C198.865 219.052 196.164 223.572 192.758 227.38C189.353 231.188 185.31 234.208 180.861 236.269C176.412 238.33 171.643 239.39 166.828 239.39C162.012 239.39 157.243 238.33 152.794 236.269C148.345 234.208 144.302 231.188 140.897 227.38C137.491 223.572 134.79 219.052 132.947 214.077C131.104 209.102 130.156 203.77 130.156 198.385V147.698C130.156 136.822 134.019 126.392 140.897 118.702C147.774 111.012 157.102 106.692 166.828 106.692V106.682Z" stroke="#F4F4F4" stroke-width="6" stroke-linecap="round" stroke-linejoin="round"/>
<path d="M105.344 210.589C108.061 226.008 115.619 239.913 126.718 249.913C137.818 259.913 151.765 265.384 166.163 265.384C180.56 265.384 194.508 259.913 205.607 249.913C216.707 239.913 224.265 226.008 226.981 210.589M166.158 265.347V298.656M275.343 210.589H378.348M306.611 308.431H378.348M291.476 259.515H378.348" stroke="#F4F4F4" stroke-width="6" stroke-linecap="round" stroke-linejoin="round"/>
</svg>
