<svg width="300" height="300" viewBox="0 0 300 300" fill="none" xmlns="http://www.w3.org/2000/svg">
<path d="M203.313 224.676H52.1743C47.6188 224.674 43.2505 222.649 40.0299 219.047C36.8092 215.444 35 210.559 35 205.465V42.2039C35 37.1107 36.8094 32.2261 40.0302 28.6247C43.2511 25.0233 47.6194 23 52.1743 23H140.468L203.313 224.676Z" stroke="#F4F4F4" stroke-width="6" stroke-linecap="round" stroke-linejoin="round"/>
<path d="M156.879 75.6455H246.826C251.38 75.6473 255.748 77.6712 258.968 81.2722C262.189 84.8733 263.999 89.7568 264 94.8494V258.11C264 263.204 262.191 268.088 258.97 271.69C255.749 275.291 251.381 277.314 246.826 277.314H158.532M158.532 277.314L142.127 224.672M158.532 277.314L203.318 224.679M100.598 61.2872C107.054 61.2872 113.246 64.1549 117.81 69.2593C122.375 74.3636 124.94 81.2867 124.94 88.5054V122.157C124.94 125.731 124.31 129.271 123.087 132.573C121.864 135.875 120.071 138.876 117.81 141.403C115.55 143.931 112.867 145.935 109.913 147.303C106.96 148.671 103.795 149.375 100.598 149.375C97.4018 149.375 94.2365 148.671 91.2833 147.303C88.33 145.935 85.6466 143.931 83.3863 141.403C81.126 138.876 79.333 135.875 78.1097 132.573C76.8865 129.271 76.2568 125.731 76.2568 122.157V88.5123C76.2568 81.2936 78.8214 74.3705 83.3863 69.2661C87.9512 64.1617 94.1426 61.2941 100.598 61.2941V61.2872Z" stroke="#F4F4F4" stroke-width="6" stroke-linecap="round" stroke-linejoin="round"/>
<path d="M59.7881 130.258C61.5913 140.492 66.6079 149.722 73.9755 156.36C81.343 162.998 90.601 166.629 100.158 166.629C109.714 166.629 118.972 162.998 126.34 156.36C133.707 149.722 138.724 140.492 140.527 130.258M100.155 166.604V188.714M172.628 130.258H240.999M193.383 195.202H240.999M183.337 162.733H240.999" stroke="#F4F4F4" stroke-width="6" stroke-linecap="round" stroke-linejoin="round"/>
</svg>
