<svg width="120" height="120" viewBox="0 0 120 120" fill="none" xmlns="http://www.w3.org/2000/svg">
<path d="M81.1511 89.2633H21.7499C19.9595 89.2626 18.2426 88.4668 16.9769 87.0509C15.7111 85.6351 15 83.715 15 81.713V17.5476C15 15.5459 15.7111 13.6261 16.977 12.2106C18.2429 10.7952 19.9597 10 21.7499 10H56.4513L81.1511 89.2633Z" stroke="#F4F4F4" stroke-width="3" stroke-linecap="round" stroke-linejoin="round"/>
<path d="M62.8988 30.6895H98.2501C100.04 30.6902 101.757 31.4857 103.022 32.901C104.288 34.3163 104.999 36.2356 105 38.2371V102.403C105 104.404 104.289 106.324 103.023 107.739C101.757 109.155 100.04 109.95 98.2501 109.95H63.5487M63.5487 109.95L57.1008 89.2604M63.5487 109.95L81.1506 89.2631M40.7792 25.0464C43.3165 25.0464 45.7498 26.1734 47.544 28.1796C49.3381 30.1857 50.346 32.9066 50.346 35.7438V48.9696C50.346 50.3744 50.0986 51.7655 49.6178 53.0633C49.137 54.3612 48.4323 55.5405 47.544 56.5338C46.6556 57.5272 45.601 58.3151 44.4403 58.8527C43.2796 59.3903 42.0355 59.667 40.7792 59.667C39.5229 59.667 38.2789 59.3903 37.1182 58.8527C35.9575 58.3151 34.9028 57.5272 34.0145 56.5338C33.1261 55.5405 32.4214 54.3612 31.9406 53.0633C31.4599 51.7655 31.2124 50.3744 31.2124 48.9696V35.7465C31.2124 32.9093 32.2203 30.1884 34.0145 28.1823C35.8086 26.1761 38.2419 25.0491 40.7792 25.0491V25.0464Z" stroke="#F4F4F4" stroke-width="3" stroke-linecap="round" stroke-linejoin="round"/>
<path d="M24.7358 52.1545C25.4445 56.177 27.4162 59.8044 30.3118 62.4132C33.2074 65.022 36.846 66.4491 40.602 66.4491C44.358 66.4491 47.9966 65.022 50.8922 62.4132C53.7878 59.8044 55.7594 56.177 56.4681 52.1545M40.6008 66.4394V75.1291M69.0846 52.1545H95.9562M77.2416 77.6792H95.9562M73.2933 64.9182H95.9562" stroke="#F4F4F4" stroke-width="3" stroke-linecap="round" stroke-linejoin="round"/>
</svg>
