<svg width="120" height="120" viewBox="0 0 120 120" fill="none" xmlns="http://www.w3.org/2000/svg">
<g clip-path="url(#clip0_65_149)">
<path d="M76.4175 0.478488C79.5376 1.97853 81.1396 6.51614 80.0056 10.6262L51.2766 114.789C50.1366 118.899 46.6984 121.014 43.5843 119.522C40.4642 118.021 38.8622 113.484 39.9962 109.374L68.7252 5.21111C69.8652 1.101 73.3034 -1.01405 76.4175 0.478488ZM14.4833 61.92L35.7001 89.9258C38.0401 93.0158 38.0401 98.026 35.7001 101.116C35.1591 101.847 34.5029 102.431 33.7729 102.83C33.0429 103.229 32.2547 103.435 31.4579 103.435C30.6611 103.435 29.873 103.229 29.1429 102.83C28.4129 102.431 27.7568 101.847 27.2158 101.116L1.75688 67.5227C0.627511 66 0 64.0002 0 61.9238C0 59.8474 0.627511 57.8476 1.75688 56.3249L27.2158 22.7241C27.7568 21.9928 28.4129 21.4094 29.1429 21.0104C29.873 20.6114 30.6611 20.4054 31.4579 20.4054C32.2547 20.4054 33.0429 20.6114 33.7729 21.0104C34.5029 21.4094 35.1591 21.9928 35.7001 22.7241C36.8285 24.2488 37.4554 26.2495 37.4554 28.3267C37.4554 30.4039 36.8285 32.4046 35.7001 33.9293L14.4833 61.92ZM105.518 61.92L84.3018 33.9293C83.1724 32.4066 82.5449 30.4069 82.5449 28.3304C82.5449 26.254 83.1724 24.2543 84.3018 22.7316C84.8427 22.0003 85.4989 21.4169 86.2289 21.0179C86.9589 20.6189 87.7471 20.4129 88.5439 20.4129C89.3407 20.4129 90.1288 20.6189 90.8589 21.0179C91.5889 21.4169 92.245 22.0003 92.786 22.7316L118.245 56.3249C120.585 59.415 120.585 64.4251 118.245 67.5227L92.786 101.109C92.245 101.84 91.5889 102.423 90.8589 102.822C90.1288 103.221 89.3407 103.427 88.5439 103.427C87.7471 103.427 86.9589 103.221 86.2289 102.822C85.4989 102.423 84.8427 101.84 84.3018 101.109C83.1741 99.5863 82.5476 97.5881 82.5476 95.5134C82.5476 93.4388 83.1741 91.4406 84.3018 89.9183L105.518 61.92Z" fill="white"/>
</g>
<defs>
<clipPath id="clip0_65_149">
<rect width="120" height="120" fill="white"/>
</clipPath>
</defs>
</svg>
