<svg width="300" height="300" viewBox="0 0 300 300" fill="none" xmlns="http://www.w3.org/2000/svg">
<g clip-path="url(#clip0_65_150)">
<path d="M191.044 1.19622C198.844 4.94632 202.849 16.2904 200.014 26.5656L128.192 286.972C125.341 297.248 116.746 302.535 108.961 298.804C101.161 295.054 97.1554 283.71 99.9905 273.434L171.813 13.0278C174.663 2.75251 183.258 -2.53513 191.044 1.19622ZM36.2083 154.8L89.2502 224.814C95.1004 232.54 95.1004 245.065 89.2502 252.79C87.8977 254.618 86.2573 256.077 84.4322 257.074C82.6072 258.072 80.6367 258.587 78.6448 258.587C76.6528 258.587 74.6824 258.072 72.8573 257.074C71.0322 256.077 69.3919 254.618 68.0394 252.79L4.3922 168.807C1.56878 165 0 160.001 0 154.81C0 149.618 1.56878 144.619 4.3922 140.812L68.0394 56.8101C69.3919 54.9821 71.0322 53.5235 72.8573 52.5259C74.6824 51.5284 76.6528 51.0134 78.6448 51.0134C80.6367 51.0134 82.6072 51.5284 84.4322 52.5259C86.2573 53.5235 87.8977 54.9821 89.2502 56.8101C92.0713 60.622 93.6384 65.6238 93.6384 70.8167C93.6384 76.0097 92.0713 81.0115 89.2502 84.8234L36.2083 154.8ZM263.796 154.8L210.754 84.8234C207.931 81.0166 206.362 76.0172 206.362 70.8261C206.362 65.6351 207.931 60.6356 210.754 56.8289C212.107 55.0009 213.747 53.5423 215.572 52.5447C217.397 51.5471 219.368 51.0322 221.36 51.0322C223.352 51.0322 225.322 51.5471 227.147 52.5447C228.972 53.5423 230.613 55.0009 231.965 56.8289L295.612 140.812C301.463 148.537 301.463 161.063 295.612 168.807L231.965 252.771C230.613 254.599 228.972 256.058 227.147 257.056C225.322 258.053 223.352 258.568 221.36 258.568C219.368 258.568 217.397 258.053 215.572 257.056C213.747 256.058 212.107 254.599 210.754 252.771C207.935 248.966 206.369 243.97 206.369 238.784C206.369 233.597 207.935 228.601 210.754 224.796L263.796 154.8Z" fill="white"/>
</g>
<defs>
<clipPath id="clip0_65_150">
<rect width="300" height="300" fill="white"/>
</clipPath>
</defs>
</svg>
