<svg width="482" height="482" viewBox="0 0 482 482" fill="none" xmlns="http://www.w3.org/2000/svg">
<g clip-path="url(#clip0_65_151)">
<path d="M306.944 1.92193C319.476 7.94708 325.911 26.1732 321.356 42.6821L205.961 461.069C201.382 477.578 187.572 486.073 175.064 480.078C162.531 474.053 156.096 455.827 160.651 439.318L276.046 20.9313C280.625 4.42236 294.435 -4.0731 306.944 1.92193ZM58.1747 248.712L143.395 361.202C152.795 373.614 152.795 393.738 143.395 406.149C141.222 409.086 138.587 411.43 135.654 413.033C132.722 414.635 129.556 415.463 126.356 415.463C123.156 415.463 119.99 414.635 117.057 413.033C114.125 411.43 111.49 409.086 109.317 406.149L7.0568 271.216C2.5205 265.1 0 257.068 0 248.727C0 240.387 2.5205 232.355 7.0568 226.238L109.317 91.2749C111.49 88.3379 114.125 85.9944 117.057 84.3917C119.99 82.7889 123.156 81.9616 126.356 81.9616C129.556 81.9616 132.722 82.7889 135.654 84.3917C138.587 85.9944 141.222 88.3379 143.395 91.2749C147.928 97.3994 150.446 105.436 150.446 113.779C150.446 122.122 147.928 130.158 143.395 136.283L58.1747 248.712ZM423.833 248.712L338.612 136.283C334.076 130.167 331.555 122.134 331.555 113.794C331.555 105.454 334.076 97.4212 338.612 91.3051C340.785 88.3681 343.42 86.0246 346.353 84.4218C349.285 82.8191 352.451 81.9917 355.651 81.9917C358.852 81.9917 362.018 82.8191 364.95 84.4218C367.882 86.0246 370.518 88.3681 372.691 91.3051L474.95 226.238C484.35 238.65 484.35 258.774 474.95 271.216L372.691 406.119C370.518 409.056 367.882 411.4 364.95 413.003C362.018 414.605 358.852 415.433 355.651 415.433C352.451 415.433 349.285 414.605 346.353 413.003C343.42 411.4 340.785 409.056 338.612 406.119C334.083 400.005 331.566 391.979 331.566 383.646C331.566 375.312 334.083 367.286 338.612 361.172L423.833 248.712Z" fill="white"/>
</g>
<defs>
<clipPath id="clip0_65_151">
<rect width="482" height="482" fill="white"/>
</clipPath>
</defs>
</svg>
