<svg width="120" height="120" viewBox="0 0 120 120" fill="none" xmlns="http://www.w3.org/2000/svg">
<g clip-path="url(#clip0_65_140)">
<path d="M25.8881 0V0.0254724C19.2021 0.840586 13.2917 8.17661 13.2917 17.5504C13.2917 22.7468 15.1905 27.3318 17.9719 30.5158L20.6998 33.6234L16.501 34.3621C12.8371 35.0244 10.1359 36.8839 7.88946 39.8387C5.61622 42.768 3.90461 46.8436 2.70114 51.505C0.508135 60.0637 0.0534879 70.5328 0 79.6519H11.7673L14.9499 120H40.7043L43.5124 79.6519H54.7181C54.7181 70.4309 54.6378 59.8344 52.632 51.1993C51.5623 46.4869 49.9042 42.4369 47.6309 39.5075C45.331 36.6037 42.4961 34.7442 38.4043 34.1584L34.1252 33.5215L36.8264 30.312C39.5008 27.128 41.2926 22.6194 41.2926 17.5504C41.2926 7.56527 34.6601 0.0254724 27.2788 0.0254724C26.5032 0.0254724 26.0218 0 25.8881 0ZM111.709 2.03778C107.109 2.03778 103.419 5.54532 103.419 9.9342C103.419 14.3231 107.109 17.8306 111.709 17.8306C116.309 17.8306 120 14.3231 120 9.9342C120 5.54532 116.309 2.03778 111.709 2.03778ZM77.2097 7.64169V19.8684H49.6635V24.4534H77.2097V64.6996H62.5006V69.2847H77.2097V97.3042H49.6635V101.889H77.2097V110.04H98.8188C98.6851 109.302 98.6049 108.537 98.6049 107.748C98.6049 106.958 98.6851 106.194 98.8188 105.455H82.0236V69.2847H98.8188C98.6851 68.546 98.6049 67.7818 98.6049 66.9921C98.6049 66.2025 98.6851 65.4383 98.8188 64.6996H82.0236V12.2267H98.8188C98.6851 11.4829 98.6049 10.7162 98.6049 9.9342C98.6049 9.1522 98.6851 8.38548 98.8188 7.64169H77.2097ZM111.709 59.0957C107.109 59.0957 103.419 62.6109 103.419 66.9921C103.419 71.3734 107.109 74.8886 111.709 74.8886C116.309 74.8886 120 71.3734 120 66.9921C120 62.6109 116.309 59.0957 111.709 59.0957ZM111.709 99.8514C107.109 99.8514 103.419 103.367 103.419 107.748C103.419 112.129 107.109 115.644 111.709 115.644C116.309 115.644 120 112.129 120 107.748C120 103.367 116.309 99.8514 111.709 99.8514Z" fill="white"/>
</g>
<defs>
<clipPath id="clip0_65_140">
<rect width="120" height="120" fill="white"/>
</clipPath>
</defs>
</svg>
