<svg width="300" height="300" viewBox="0 0 300 300" fill="none" xmlns="http://www.w3.org/2000/svg">
<g clip-path="url(#clip0_65_141)">
<path d="M64.7203 0V0.063681C48.0053 2.10146 33.2293 20.4415 33.2293 43.876C33.2293 56.8669 37.9764 68.3294 44.9298 76.2895L51.7495 84.0586L41.2525 85.9053C32.0927 87.561 25.3399 92.2097 19.7236 99.5967C14.0406 106.92 9.76153 117.109 6.75284 128.762C1.27034 150.159 0.13372 176.332 0 199.13H29.4183L37.3746 300H101.761L108.781 199.13H136.795C136.795 176.077 136.595 149.586 131.58 127.998C128.906 116.217 124.76 106.092 119.077 98.7688C113.327 91.5092 106.24 86.8605 96.0107 85.3959L85.3131 83.8039L92.066 75.7801C98.7519 67.82 103.232 56.5485 103.232 43.876C103.232 18.9132 86.6503 0.063681 68.197 0.063681C66.2581 0.063681 65.0546 0 64.7203 0ZM279.273 5.09446C267.774 5.09446 258.547 13.8633 258.547 24.8355C258.547 35.8077 267.774 44.5765 279.273 44.5765C290.773 44.5765 300 35.8077 300 24.8355C300 13.8633 290.773 5.09446 279.273 5.09446ZM193.024 19.1042V49.671H124.159V61.1335H193.024V161.749H156.251V173.212H193.024V243.26H124.159V254.723H193.024V275.101H247.047C246.713 273.254 246.512 271.344 246.512 269.37C246.512 267.395 246.713 265.485 247.047 263.638H205.059V173.212H247.047C246.713 171.365 246.512 169.454 246.512 167.48C246.512 165.506 246.713 163.596 247.047 161.749H205.059V30.5668H247.047C246.713 28.7073 246.512 26.7905 246.512 24.8355C246.512 22.8805 246.713 20.9637 247.047 19.1042H193.024ZM279.273 147.739C267.774 147.739 258.547 156.527 258.547 167.48C258.547 178.433 267.774 187.221 279.273 187.221C290.773 187.221 300 178.433 300 167.48C300 156.527 290.773 147.739 279.273 147.739ZM279.273 249.629C267.774 249.629 258.547 258.416 258.547 269.37C258.547 280.323 267.774 289.111 279.273 289.111C290.773 289.111 300 280.323 300 269.37C300 258.416 290.773 249.629 279.273 249.629Z" fill="white"/>
</g>
<defs>
<clipPath id="clip0_65_141">
<rect width="300" height="300" fill="white"/>
</clipPath>
</defs>
</svg>
