<svg width="482" height="482" viewBox="0 0 482 482" fill="none" xmlns="http://www.w3.org/2000/svg">
<g clip-path="url(#clip0_65_142)">
<path d="M103.984 0V0.102314C77.1286 3.37635 53.3885 32.8427 53.3885 70.4942C53.3885 91.3662 61.0154 109.783 72.1872 122.572L83.1442 135.054L66.279 138.021C51.5623 140.681 40.7127 148.15 31.6893 160.019C22.5585 171.785 15.6835 188.155 10.8496 206.878C2.04101 241.256 0.214843 283.307 0 319.935H47.2654L60.0486 482H163.495L174.775 319.935H219.784C219.784 282.897 219.462 240.335 211.405 205.651C207.109 186.723 200.448 170.455 191.318 158.689C182.079 147.025 170.693 139.556 154.257 137.203L137.07 134.645L147.919 121.753C158.661 108.964 165.859 90.8546 165.859 70.4942C165.859 30.3872 139.218 0.102314 109.57 0.102314C106.455 0.102314 104.521 0 103.984 0ZM448.699 8.1851C430.223 8.1851 415.399 22.2737 415.399 39.9024C415.399 57.531 430.223 71.6196 448.699 71.6196C467.176 71.6196 482 57.531 482 39.9024C482 22.2737 467.176 8.1851 448.699 8.1851ZM310.126 30.6941V79.8047H199.482V98.2212H310.126V259.877H251.044V278.293H310.126V390.838H199.482V409.255H310.126V441.995H396.922C396.385 439.028 396.063 435.959 396.063 432.787C396.063 429.615 396.385 426.546 396.922 423.579H329.462V278.293H396.922C396.385 275.326 396.063 272.257 396.063 269.085C396.063 265.913 396.385 262.844 396.922 259.877H329.462V49.1106H396.922C396.385 46.123 396.063 43.0434 396.063 39.9024C396.063 36.7613 396.385 33.6817 396.922 30.6941H310.126ZM448.699 237.368C430.223 237.368 415.399 251.487 415.399 269.085C415.399 286.683 430.223 300.802 448.699 300.802C467.176 300.802 482 286.683 482 269.085C482 251.487 467.176 237.368 448.699 237.368ZM448.699 401.07C430.223 401.07 415.399 415.189 415.399 432.787C415.399 450.385 430.223 464.504 448.699 464.504C467.176 464.504 482 450.385 482 432.787C482 415.189 467.176 401.07 448.699 401.07Z" fill="white"/>
</g>
<defs>
<clipPath id="clip0_65_142">
<rect width="482" height="482" fill="white"/>
</clipPath>
</defs>
</svg>
